<svg width="275" height="276" viewBox="0 0 275 276" fill="none" xmlns="http://www.w3.org/2000/svg">
<path d="M144.452 45.3643V264.433" stroke="#263238" stroke-width="0.209117" stroke-linejoin="round"/>
<path d="M144.452 16.6831V40.8419" stroke="#263238" stroke-width="0.209117" stroke-linejoin="round"/>
<path d="M262.697 140.558H268.531" stroke="#263238" stroke-width="0.209117" stroke-linejoin="round"/>
<path d="M98.1826 140.558H257.729" stroke="#263238" stroke-width="0.209117" stroke-linejoin="round"/>
<path d="M20.3797 140.558H93.2086" stroke="#263238" stroke-width="0.209117" stroke-linejoin="round"/>
<path d="M210.519 264.371C236.326 264.371 257.247 243.45 257.247 217.643C257.247 191.836 236.326 170.916 210.519 170.916C184.712 170.916 163.792 191.836 163.792 217.643C163.792 243.45 184.712 264.371 210.519 264.371Z" fill="#263238"/>
<path d="M75.5705 264.371C101.377 264.371 122.298 243.45 122.298 217.643C122.298 191.836 101.377 170.916 75.5705 170.916C49.7636 170.916 28.8429 191.836 28.8429 217.643C28.8429 243.45 49.7636 264.371 75.5705 264.371Z" fill="#263238"/>
<path d="M241.954 108.98C260.202 90.7322 260.202 61.146 241.954 42.8977C223.706 24.6495 194.12 24.6495 175.872 42.8977C157.623 61.146 157.623 90.7322 175.872 108.98C194.12 127.229 223.706 127.229 241.954 108.98Z" fill="#263238"/>
<path d="M108.612 108.976C126.86 90.7277 126.86 61.1415 108.612 42.8932C90.364 24.645 60.7777 24.645 42.5295 42.8932C24.2813 61.1415 24.2813 90.7277 42.5295 108.976C60.7777 127.224 90.364 127.224 108.612 108.976Z" fill="#263238"/>
<path d="M195.294 167.68C195.294 167.68 190.629 167.148 187.963 162.347C185.296 157.546 189.565 153.68 196.494 149.813C203.429 145.946 213.693 144.746 221.16 147.679C228.628 150.611 234.758 160.479 234.629 168.348C234.492 176.217 233.694 177.418 233.026 177.152C232.358 176.886 231.56 174.887 231.56 174.887C231.56 174.887 232.092 179.552 231.028 182.355C229.964 185.157 228.628 185.955 227.297 185.689C225.961 185.423 224.761 182.887 223.833 181.291C222.899 179.688 223.165 177.288 216.502 174.225C209.833 171.157 207.166 169.295 205.836 168.49C204.5 167.692 198.103 165.422 198.103 165.422L195.3 167.686L195.294 167.68Z" fill="#9E9E9E" stroke="#263238" stroke-width="0.209117" stroke-linejoin="round"/>
<path d="M226.227 163.956C229.692 163.652 231.492 163.083 231.492 163.083" stroke="#263238" stroke-width="0.209117" stroke-linecap="round" stroke-linejoin="round"/>
<path d="M200.596 158.969C200.596 158.969 207.773 163.257 217.139 163.956C219.768 164.154 222.058 164.172 223.982 164.092" stroke="#263238" stroke-width="0.209117" stroke-linecap="round" stroke-linejoin="round"/>
<path d="M214.516 166.412C214.516 166.412 224.495 166.672 232.81 164.747" stroke="#263238" stroke-width="0.209117" stroke-linecap="round" stroke-linejoin="round"/>
<path d="M195.344 156.866C195.344 156.866 194.292 153.63 195.17 152.139" stroke="#263238" stroke-width="0.209117" stroke-linecap="round" stroke-linejoin="round"/>
<path d="M191.687 162.131C192.733 163.764 194.385 163.609 194.385 163.609" stroke="#263238" stroke-width="0.209117" stroke-linecap="round" stroke-linejoin="round"/>
<path d="M194.471 154.243C194.471 154.243 190.357 156.346 190.97 160.108" stroke="#263238" stroke-width="0.209117" stroke-linecap="round" stroke-linejoin="round"/>
<path d="M230.082 170.984C230.725 171.219 231.344 171.528 231.845 171.924" stroke="#263238" stroke-width="0.209117" stroke-linecap="round" stroke-linejoin="round"/>
<path d="M225.98 170.173C225.98 170.173 227.322 170.235 228.838 170.606" stroke="#263238" stroke-width="0.209117" stroke-linecap="round" stroke-linejoin="round"/>
<path d="M216.285 275.018C216.285 275.018 231.35 235.083 232.915 224.702C234.48 214.327 237.462 201.391 235.049 197.413C232.63 193.435 226.097 192.439 219.558 194.573C213.019 196.708 206.201 200.97 206.201 200.97C206.201 200.97 189.714 234.229 188.718 241.474C187.722 248.719 189.429 251.564 189.429 251.564L184.028 266.771" fill="white"/>
<path d="M216.285 275.018C216.285 275.018 231.35 235.083 232.915 224.702C234.48 214.327 237.462 201.391 235.049 197.413C232.63 193.435 226.097 192.439 219.558 194.573C213.019 196.708 206.201 200.97 206.201 200.97C206.201 200.97 189.714 234.229 188.718 241.474C187.722 248.719 189.429 251.564 189.429 251.564L184.028 266.771" stroke="#263238" stroke-width="0.209117" stroke-linejoin="round"/>
<path d="M183.824 189.018C183.824 189.018 183.719 194.375 183.719 196.868C183.719 199.362 184.647 207.695 184.647 207.912C184.647 208.128 183.509 210.405 183.509 210.405L192.838 213.183L195.758 206.699C195.758 206.699 199.179 202.356 200.46 200.642C201.74 198.929 203.454 194.091 203.949 193.088C204.45 192.092 205.162 191.449 205.162 191.449L197.967 182.188L190.555 187.459L183.818 189.011L183.824 189.018Z" fill="white" stroke="#263238" stroke-width="0.209117" stroke-linejoin="round"/>
<path d="M189.429 195.637C189.429 195.637 192.417 197.939 192.993 199.547C193.568 201.156 191.842 203.575 191.842 203.575" stroke="#263238" stroke-width="0.209117" stroke-linejoin="round"/>
<path d="M197.218 181.179L187.889 190.973C187.709 191.158 187.722 191.455 187.913 191.628L195.084 198.211C195.263 198.378 195.541 198.372 195.715 198.199L205.05 188.931C205.23 188.752 205.23 188.461 205.05 188.281L197.874 181.173C197.694 180.994 197.397 180.994 197.218 181.185V181.179Z" fill="url(#paint0_linear_7_876)" stroke="#263238" stroke-width="0.209117" stroke-linejoin="round"/>
<path d="M185.556 190.218C185.556 190.218 188.755 193.682 190.357 194.221C191.959 194.753 192.355 193.955 191.823 193.02C191.291 192.086 187.288 187.421 186.756 187.155C186.224 186.889 184.09 188.09 183.824 189.024L184.226 189.958" fill="white"/>
<path d="M185.556 190.218C185.556 190.218 188.755 193.682 190.357 194.221C191.959 194.753 192.355 193.955 191.823 193.02C191.291 192.086 187.288 187.421 186.756 187.155C186.224 186.889 184.09 188.09 183.824 189.024L184.226 189.958" stroke="#263238" stroke-width="0.209117" stroke-linejoin="round"/>
<path d="M186.756 187.149C186.756 187.149 187.424 185.151 188.625 185.015C189.825 184.879 193.023 189.018 194.094 189.816C195.158 190.614 194.892 191.282 193.562 191.418C192.231 191.554 188.897 189.42 188.359 189.018C187.827 188.615 186.756 187.149 186.756 187.149Z" fill="white" stroke="#263238" stroke-width="0.209117" stroke-linejoin="round"/>
<path d="M188.625 185.015C188.625 185.015 189.25 182.441 191.273 182.905C192.318 183.147 196.624 187.279 197.292 187.947C197.96 188.616 197.558 189.148 196.358 189.011C195.158 188.875 191.427 186.345 191.427 186.345L190.091 185.677L188.625 185.009V185.015Z" fill="white" stroke="#263238" stroke-width="0.209117" stroke-linejoin="round"/>
<path d="M196.228 157.682C196.228 157.682 193.562 165.15 193.426 169.016C193.29 172.883 195.294 173.681 194.762 175.147C194.23 176.613 193.16 179.15 193.562 180.882C193.964 182.614 197.565 183.147 197.565 183.147C197.565 183.147 201.431 192.08 202.897 192.748C204.364 193.416 208.898 191.412 208.898 191.412C208.898 191.412 209.301 192.21 209.301 196.479C209.301 200.747 206.9 203.278 206.764 206.476C206.628 209.675 207.698 211.809 215.834 208.741C223.969 205.672 229.166 199.275 231.3 198.075C233.435 196.875 235.433 195.94 235.433 195.94C235.433 195.94 228.498 187.007 225.565 181.804C222.633 176.601 223.029 175.537 223.029 175.537L225.293 169.536L218.228 166.999C218.228 166.999 217.028 170.73 215.691 170.866C214.355 171.002 212.493 169.4 212.357 168.732C212.221 168.064 211.423 166.467 211.423 166.467C211.423 166.467 206.622 166.603 201.821 163.665C197.02 160.732 196.222 157.664 196.222 157.664L196.228 157.682Z" fill="white" stroke="#263238" stroke-width="0.209117" stroke-linecap="round" stroke-linejoin="round"/>
<path d="M221.89 176.409L220.127 177.053C220.127 177.053 219.966 180.901 217.721 183.468" stroke="#263238" stroke-width="0.209117" stroke-linecap="round" stroke-linejoin="round"/>
<path d="M221.092 175.853C221.092 176.514 220.554 177.053 219.892 177.053C219.23 177.053 218.692 176.514 218.692 175.853C218.692 175.191 219.23 174.652 219.892 174.652C220.554 174.652 221.092 175.191 221.092 175.853Z" fill="url(#paint1_linear_7_876)" stroke="#263238" stroke-width="0.209117" stroke-linejoin="round"/>
<path d="M199.81 171.751C197.138 171.639 196.748 172.19 197.292 173.019" stroke="#263238" stroke-width="0.209117" stroke-linecap="round" stroke-linejoin="round"/>
<path d="M198.493 173.947C198.493 173.947 199.959 174.083 201.295 173.415" stroke="#263238" stroke-width="0.209117" stroke-linecap="round" stroke-linejoin="round"/>
<path d="M195.826 171.151C195.826 171.151 196.358 168.484 199.693 169.282" stroke="#263238" stroke-width="0.209117" stroke-linecap="round" stroke-linejoin="round"/>
<path d="M199.829 182.485C199.829 182.485 202.631 181.284 204.364 179.552C204.364 179.552 204.364 182.621 202.631 183.685C200.899 184.749 199.829 182.485 199.829 182.485Z" stroke="#263238" stroke-width="0.209117" stroke-linecap="round" stroke-linejoin="round"/>
<path d="M208.892 191.418L214.893 187.551L209.696 197.419L208.892 191.418Z" fill="#263238" stroke="#263238" stroke-width="0.209117" stroke-linecap="round" stroke-linejoin="round"/>
<path d="M182.036 269.19L187.295 252.134C187.295 252.134 177.631 259.527 175.497 261.228C173.362 262.935 169.954 257.819 174.928 249.999C179.902 242.179 189.992 223.991 192.126 220.724C194.261 217.458 197.385 209.211 200.652 204.664C203.918 200.116 209.69 197.419 209.69 197.419C209.69 197.419 207.612 203.531 202.068 215.039C196.525 226.552 192.974 236.5 191.836 242.328C190.697 248.156 191.551 250.148 191.551 250.148C191.551 250.148 185.866 266.92 185.439 267.916" fill="url(#paint2_linear_7_876)"/>
<path d="M182.036 269.19L187.295 252.134C187.295 252.134 177.631 259.527 175.497 261.228C173.362 262.935 169.954 257.819 174.928 249.999C179.902 242.179 189.992 223.991 192.126 220.724C194.261 217.458 197.385 209.211 200.652 204.664C203.918 200.116 209.69 197.419 209.69 197.419C209.69 197.419 207.612 203.531 202.068 215.039C196.525 226.552 192.974 236.5 191.836 242.328C190.697 248.156 191.551 250.148 191.551 250.148C191.551 250.148 185.866 266.92 185.439 267.916" stroke="#263238" stroke-width="0.209117" stroke-linejoin="round"/>
<path d="M197.243 216.746C197.243 216.746 190.561 229.398 189.287 236.642C188.006 243.893 191.563 250.141 191.563 250.141" stroke="#263238" stroke-width="0.209117" stroke-linejoin="round"/>
<path d="M233.342 274.591C233.342 274.591 240.45 252.418 242.863 240.336C245.282 228.253 247.979 219.87 245.703 211.061C243.426 202.251 235.427 195.953 235.427 195.953C235.427 195.953 229.5 198.131 220.69 209.644C211.88 221.157 204.487 233.382 200.652 243.33C196.816 253.278 200.367 258.252 200.367 258.252L197.1 275.309" fill="url(#paint3_linear_7_876)"/>
<path d="M233.342 274.591C233.342 274.591 240.45 252.418 242.863 240.336C245.282 228.253 247.979 219.87 245.703 211.061C243.426 202.251 235.427 195.953 235.427 195.953C235.427 195.953 229.5 198.131 220.69 209.644C211.88 221.157 204.487 233.382 200.652 243.33C196.816 253.278 200.367 258.252 200.367 258.252L197.1 275.309" stroke="#263238" stroke-width="0.209117" stroke-linejoin="round"/>
<path d="M238.174 235.931C238.174 235.931 209.746 272.599 203.918 272.883C198.09 273.168 193.116 264.358 192.405 263.647C191.693 262.935 185.154 258.246 185.723 255.691C186.292 253.13 188.285 250.29 189.986 250.005C191.693 249.721 196.525 253.556 196.525 253.556C196.525 253.556 214.862 229.54 215.283 228.829C215.71 228.117 220.257 214.191 227.081 206.94C233.905 199.69 238.594 203.105 240.017 205.802" fill="url(#paint4_linear_7_876)"/>
<path d="M238.174 235.931C238.174 235.931 209.746 272.599 203.918 272.883C198.09 273.168 193.116 264.358 192.405 263.647C191.693 262.935 185.154 258.246 185.723 255.691C186.292 253.13 188.285 250.29 189.986 250.005C191.693 249.721 196.525 253.556 196.525 253.556C196.525 253.556 214.862 229.54 215.283 228.829C215.71 228.117 220.257 214.191 227.081 206.94C233.905 199.69 238.594 203.105 240.017 205.802" stroke="#263238" stroke-width="0.209117" stroke-linejoin="round"/>
<path d="M196.531 253.556C196.531 253.556 194.397 256.254 194.112 259.527" stroke="#263238" stroke-width="0.209117" stroke-linejoin="round"/>
<path d="M184.449 250.29C187.289 247.166 188.427 240.342 188.427 234.799C188.427 229.255 191.124 221.015 191.409 219.165C191.693 217.315 194.533 213.764 194.391 212.341C194.248 210.918 182.593 208.648 182.593 208.648C182.593 208.648 181.597 209.928 181.597 210.924V211.921C181.597 211.921 175.769 222.865 173.214 233.524C170.653 244.184 170.232 247.45 170.232 252.004C170.232 256.557 172.366 262.805 175.491 261.24C178.615 259.675 179.469 256.266 179.469 256.266" fill="url(#paint5_linear_7_876)"/>
<path d="M184.449 250.29C187.289 247.166 188.427 240.342 188.427 234.799C188.427 229.255 191.124 221.015 191.409 219.165C191.693 217.315 194.533 213.764 194.391 212.341C194.248 210.918 182.593 208.648 182.593 208.648C182.593 208.648 181.597 209.928 181.597 210.924V211.921C181.597 211.921 175.769 222.865 173.214 233.524C170.653 244.184 170.232 247.45 170.232 252.004C170.232 256.557 172.366 262.805 175.491 261.24C178.615 259.675 179.469 256.266 179.469 256.266" stroke="#263238" stroke-width="0.209117" stroke-linejoin="round"/>
<path d="M119.427 266.604C119.427 266.604 118.339 261.172 118.339 259.947C118.339 258.722 116.841 231.415 116.575 221.497C116.309 211.58 112.09 211.58 108.694 209.811C105.297 208.042 93.3446 203.154 91.0308 202.201C88.7232 201.249 88.0426 200.166 87.0899 199.485C86.1372 198.805 83.149 198.533 83.149 198.533C83.149 198.533 64.4531 193.843 61.3041 194.555C58.1551 195.272 48.9185 202.467 44.8415 205.326C40.7645 208.178 26.9065 215.651 27.4509 222.444C27.9953 229.237 36.6875 250.568 39.6756 255.456C42.6638 260.349 48.7762 268.905 50.9539 269.994" fill="url(#paint6_linear_7_876)"/>
<path d="M54.8823 254.355C56.4846 255.344 58.1426 256.371 61.4339 256.371C64.7252 256.371 66.3832 255.344 67.9855 254.355C69.5074 253.414 70.9489 252.523 73.8814 252.523C76.8138 252.523 78.2553 253.414 79.7772 254.355C81.3796 255.344 83.0376 256.371 86.3289 256.371C89.6201 256.371 91.2782 255.344 92.8805 254.355C94.4024 253.414 95.8439 252.523 98.7825 252.523C101.721 252.523 103.156 253.414 104.685 254.355C106.287 255.344 107.945 256.371 111.236 256.371C114.527 256.371 116.185 255.344 117.788 254.355C117.887 254.293 117.986 254.237 118.079 254.175C118.054 253.73 118.035 253.26 118.011 252.777C117.714 252.95 117.423 253.13 117.138 253.303C115.616 254.243 114.175 255.134 111.236 255.134C108.298 255.134 106.862 254.243 105.334 253.303C103.732 252.313 102.074 251.286 98.7825 251.286C95.4912 251.286 93.8332 252.313 92.2309 253.303C90.709 254.243 89.2675 255.134 86.3289 255.134C83.3902 255.134 81.9549 254.243 80.433 253.303C78.8307 252.313 77.1727 251.286 73.8814 251.286C70.5901 251.286 68.9383 252.313 67.3297 253.303C65.8078 254.243 64.3664 255.134 61.4339 255.134C58.5014 255.134 57.06 254.243 55.538 253.303C53.9357 252.313 52.2777 251.286 48.9864 251.286C45.6951 251.286 44.0371 252.313 42.4348 253.303C41.482 253.891 40.5664 254.46 39.292 254.806C39.4281 255.047 39.558 255.276 39.6755 255.474C39.7622 255.617 39.8488 255.759 39.9416 255.907C41.2098 255.518 42.1564 254.93 43.0782 254.361C44.6001 253.42 46.0416 252.53 48.974 252.53C51.9065 252.53 53.348 253.42 54.8699 254.361L54.8823 254.355Z" fill="white"/>
<path d="M118.456 261.129C117.986 261.376 117.553 261.649 117.126 261.915C115.604 262.855 114.162 263.746 111.224 263.746C108.285 263.746 106.85 262.855 105.322 261.915C103.719 260.925 102.061 259.898 98.7702 259.898C95.4789 259.898 93.8209 260.925 92.2185 261.915C90.6966 262.855 89.2551 263.746 86.3165 263.746C83.3778 263.746 81.9425 262.855 80.4206 261.915C78.8183 260.925 77.1603 259.898 73.869 259.898C70.5777 259.898 68.9259 260.925 67.3174 261.915C65.7955 262.855 64.354 263.746 61.4215 263.746C58.4891 263.746 57.0476 262.855 55.5257 261.915C53.9233 260.925 52.2653 259.898 48.974 259.898C46.4066 259.898 44.8352 260.523 43.5051 261.271C43.7463 261.611 43.9876 261.946 44.2289 262.286C45.4167 261.636 46.7716 261.135 48.974 261.135C51.9127 261.135 53.348 262.026 54.8699 262.966C56.4722 263.956 58.1302 264.983 61.4215 264.983C64.7128 264.983 66.3708 263.956 67.9732 262.966C69.4951 262.026 70.9365 261.135 73.869 261.135C76.8015 261.135 78.2429 262.026 79.7649 262.966C81.3672 263.956 83.0252 264.983 86.3165 264.983C89.6078 264.983 91.2658 263.956 92.8681 262.966C94.39 262.026 95.8315 261.135 98.7702 261.135C101.709 261.135 103.144 262.026 104.672 262.966C106.275 263.956 107.933 264.983 111.224 264.983C114.515 264.983 116.173 263.956 117.775 262.966C118.066 262.787 118.357 262.608 118.654 262.44C118.574 261.976 118.505 261.525 118.45 261.135L118.456 261.129Z" fill="white"/>
<path d="M36.5329 213.313C39.818 213.313 41.4822 212.286 43.0845 211.296C44.6064 210.355 46.0479 209.464 48.9803 209.464C51.9128 209.464 53.3543 210.355 54.8762 211.296C56.4785 212.286 58.1365 213.313 61.4278 213.313C64.7191 213.313 66.3771 212.286 67.9795 211.296C69.5014 210.355 70.9428 209.464 73.8753 209.464C76.8078 209.464 78.2492 210.355 79.7712 211.296C81.3735 212.286 83.0315 213.313 86.3228 213.313C89.6141 213.313 91.2721 212.286 92.8744 211.296C94.3963 210.355 95.8378 209.464 98.7765 209.464C101.715 209.464 103.15 210.355 104.679 211.296C106.281 212.286 107.939 213.313 111.23 213.313C112.387 213.313 113.34 213.183 114.163 212.972C113.804 212.564 113.414 212.23 113.012 211.939C112.48 212.02 111.898 212.075 111.23 212.075C108.291 212.075 106.856 211.184 105.328 210.244C103.726 209.254 102.068 208.227 98.7765 208.227C95.4852 208.227 93.8272 209.254 92.2248 210.244C90.7029 211.184 89.2614 212.075 86.3228 212.075C83.3841 212.075 81.9488 211.184 80.4269 210.244C78.8246 209.254 77.1666 208.227 73.8753 208.227C70.584 208.227 68.9322 209.254 67.3237 210.244C65.8018 211.184 64.3603 212.075 61.4278 212.075C58.4954 212.075 57.0539 211.184 55.532 210.244C53.9296 209.254 52.2716 208.227 48.9803 208.227C45.6891 208.227 44.031 209.254 42.4287 210.244C40.9068 211.184 39.4653 212.075 36.5329 212.075C35.9575 212.075 35.4564 212.032 34.9862 211.97C34.547 212.304 34.1139 212.651 33.687 212.997C34.4913 213.195 35.4131 213.313 36.5329 213.313Z" fill="white"/>
<path d="M54.8824 202.684C56.4847 203.674 58.1427 204.701 61.434 204.701C64.7253 204.701 66.3833 203.674 67.9856 202.684C69.5075 201.744 70.949 200.853 73.8815 200.853C76.8139 200.853 78.2554 201.744 79.7773 202.684C81.3797 203.674 83.0377 204.701 86.329 204.701C89.4285 204.701 91.0803 203.791 92.6022 202.851C91.9959 202.603 91.5072 202.399 91.1669 202.263C89.9605 202.938 88.5871 203.463 86.329 203.463C83.3903 203.463 81.955 202.573 80.4331 201.632C78.8308 200.642 77.1727 199.615 73.8815 199.615C70.5902 199.615 68.9384 200.642 67.3298 201.632C65.8079 202.573 64.3664 203.463 61.434 203.463C58.5015 203.463 57.06 202.573 55.5381 201.632C54.5606 201.026 53.5646 200.413 52.1912 200.024C51.7396 200.345 51.2879 200.673 50.8363 200.995C52.6057 201.28 53.7255 201.966 54.8885 202.684H54.8824Z" fill="white"/>
<path d="M48.9865 243.905C51.9251 243.905 53.3604 244.796 54.8823 245.737C56.4847 246.726 58.1427 247.753 61.434 247.753C64.7252 247.753 66.3833 246.726 67.9856 245.737C69.5075 244.796 70.949 243.905 73.8814 243.905C76.8139 243.905 78.2554 244.796 79.7773 245.737C81.3796 246.726 83.0377 247.753 86.3289 247.753C89.6202 247.753 91.2782 246.726 92.8806 245.737C94.4025 244.796 95.844 243.905 98.7826 243.905C101.721 243.905 103.157 244.796 104.685 245.737C106.287 246.726 107.945 247.753 111.236 247.753C114.528 247.753 116.093 246.782 117.658 245.811C117.633 245.347 117.608 244.877 117.59 244.4C117.435 244.493 117.287 244.586 117.138 244.679C115.616 245.619 114.175 246.51 111.236 246.51C108.298 246.51 106.862 245.619 105.334 244.679C103.732 243.689 102.074 242.662 98.7826 242.662C95.4913 242.662 93.8333 243.689 92.231 244.679C90.7091 245.619 89.2676 246.51 86.3289 246.51C83.3903 246.51 81.955 245.619 80.4331 244.679C78.8307 243.689 77.1727 242.662 73.8814 242.662C70.5902 242.662 68.9383 243.689 67.3298 244.679C65.8079 245.619 64.3664 246.51 61.434 246.51C58.5015 246.51 57.06 245.619 55.5381 244.679C53.9358 243.689 52.2778 242.662 48.9865 242.662C45.6952 242.662 44.0372 243.689 42.4349 244.679C40.9129 245.619 39.4715 246.51 36.539 246.51C36.1307 246.51 35.7533 246.491 35.4007 246.454C35.5863 246.887 35.7657 247.314 35.9513 247.735C36.1431 247.741 36.3348 247.747 36.539 247.747C39.8241 247.747 41.4883 246.72 43.0906 245.73C44.6125 244.79 46.054 243.899 48.9865 243.899V243.905Z" fill="white"/>
<path d="M105.328 218.856C103.726 217.866 102.068 216.839 98.7765 216.839C95.4852 216.839 93.8272 217.866 92.2248 218.856C90.7029 219.796 89.2614 220.687 86.3228 220.687C83.3841 220.687 81.9488 219.796 80.4269 218.856C78.8246 217.866 77.1666 216.839 73.8753 216.839C70.584 216.839 68.9322 217.866 67.3237 218.856C65.8018 219.796 64.3603 220.687 61.4278 220.687C58.4954 220.687 57.0539 219.796 55.532 218.856C53.9296 217.866 52.2716 216.839 48.9803 216.839C45.6891 216.839 44.031 217.866 42.4287 218.856C40.9068 219.796 39.4653 220.687 36.5329 220.687C33.6004 220.687 32.1589 219.796 30.637 218.856C30.105 218.522 29.5605 218.188 28.9542 217.891C28.713 218.243 28.5026 218.602 28.3108 218.955C28.9048 219.239 29.443 219.567 29.9874 219.907C31.5898 220.897 33.2478 221.924 36.539 221.924C39.8303 221.924 41.4883 220.897 43.0907 219.907C44.6126 218.967 46.0541 218.076 48.9865 218.076C51.919 218.076 53.3605 218.967 54.8824 219.907C56.4847 220.897 58.1427 221.924 61.434 221.924C64.7253 221.924 66.3833 220.897 67.9856 219.907C69.5075 218.967 70.949 218.076 73.8815 218.076C76.8139 218.076 78.2554 218.967 79.7773 219.907C81.3797 220.897 83.0377 221.924 86.329 221.924C89.6203 221.924 91.2783 220.897 92.8806 219.907C94.4025 218.967 95.844 218.076 98.7826 218.076C101.721 218.076 103.157 218.967 104.685 219.907C106.287 220.897 107.945 221.924 111.236 221.924C113.705 221.924 115.251 221.349 116.551 220.638C116.526 220.155 116.489 219.703 116.439 219.27C115.14 220.037 113.723 220.681 111.236 220.681C108.298 220.681 106.862 219.79 105.334 218.85L105.328 218.856Z" fill="white"/>
<path d="M105.328 227.468C103.726 226.478 102.068 225.451 98.7764 225.451C95.4852 225.451 93.8271 226.478 92.2248 227.468C90.7029 228.408 89.2614 229.299 86.3228 229.299C83.3841 229.299 81.9488 228.408 80.4269 227.468C78.8246 226.478 77.1666 225.451 73.8753 225.451C70.584 225.451 68.9322 226.478 67.3237 227.468C65.8018 228.408 64.3603 229.299 61.4278 229.299C58.4954 229.299 57.0539 228.408 55.532 227.468C53.9296 226.478 52.2716 225.451 48.9803 225.451C45.689 225.451 44.031 226.478 42.4287 227.468C40.9068 228.408 39.4653 229.299 36.5328 229.299C33.6004 229.299 32.1589 228.408 30.637 227.468C29.876 226.997 29.0965 226.515 28.1376 226.144C28.2613 226.639 28.3974 227.152 28.5459 227.69C29.047 227.944 29.511 228.228 29.9812 228.519C31.5836 229.509 33.2416 230.536 36.5328 230.536C39.8241 230.536 41.4821 229.509 43.0845 228.519C44.6064 227.579 46.0479 226.688 48.9803 226.688C51.9128 226.688 53.3543 227.579 54.8762 228.519C56.4785 229.509 58.1365 230.536 61.4278 230.536C64.7191 230.536 66.3771 229.509 67.9794 228.519C69.5014 227.579 70.9428 226.688 73.8753 226.688C76.8078 226.688 78.2492 227.579 79.7711 228.519C81.3735 229.509 83.0315 230.536 86.3228 230.536C89.6141 230.536 91.2721 229.509 92.8744 228.519C94.3963 227.579 95.8378 226.688 98.7764 226.688C101.715 226.688 103.15 227.579 104.678 228.519C106.281 229.509 107.939 230.536 111.23 230.536C113.903 230.536 115.499 229.862 116.86 229.076C116.841 228.6 116.817 228.129 116.798 227.672C115.388 228.538 113.952 229.305 111.224 229.305C108.285 229.305 106.85 228.414 105.322 227.474L105.328 227.468Z" fill="white"/>
<path d="M43.0845 237.131C44.6064 236.191 46.0479 235.3 48.9803 235.3C51.9128 235.3 53.3543 236.191 54.8762 237.131C56.4785 238.121 58.1365 239.148 61.4278 239.148C64.7191 239.148 66.3771 238.121 67.9794 237.131C69.5013 236.191 70.9428 235.3 73.8753 235.3C76.8077 235.3 78.2492 236.191 79.7711 237.131C81.3735 238.121 83.0315 239.148 86.3228 239.148C89.614 239.148 91.2721 238.121 92.8744 237.131C94.3963 236.191 95.8378 235.3 98.7764 235.3C101.715 235.3 103.15 236.191 104.678 237.131C106.281 238.121 107.939 239.148 111.23 239.148C114.156 239.148 115.79 238.337 117.244 237.459C117.219 236.989 117.2 236.519 117.175 236.048L117.126 236.079C115.604 237.02 114.163 237.911 111.224 237.911C108.285 237.911 106.85 237.02 105.322 236.079C103.72 235.089 102.062 234.062 98.7702 234.062C95.479 234.062 93.821 235.089 92.2186 236.079C90.6967 237.02 89.2552 237.911 86.3166 237.911C83.3779 237.911 81.9426 237.02 80.4207 236.079C78.8184 235.089 77.1604 234.062 73.8691 234.062C70.5778 234.062 68.926 235.089 67.3175 236.079C65.7956 237.02 64.3541 237.911 61.4216 237.911C58.4892 237.911 57.0477 237.02 55.5258 236.079C53.9234 235.089 52.2654 234.062 48.9741 234.062C45.6828 234.062 44.0248 235.089 42.4225 236.079C40.9006 237.02 39.4591 237.911 36.5266 237.911C34.1386 237.911 32.7404 237.317 31.4784 236.587C31.6887 237.156 31.8991 237.731 32.1156 238.306C33.2354 238.795 34.6026 239.148 36.5205 239.148C39.8056 239.148 41.4698 238.121 43.0721 237.131H43.0845Z" fill="white"/>
<path d="M119.427 266.604C119.427 266.604 118.339 261.172 118.339 259.947C118.339 258.722 116.841 231.415 116.575 221.497C116.309 211.58 112.09 211.58 108.694 209.811C105.297 208.042 93.3446 203.154 91.0308 202.201C88.7232 201.249 88.0426 200.166 87.0899 199.485C86.1372 198.805 83.149 198.533 83.149 198.533C83.149 198.533 64.4531 193.843 61.3041 194.555C58.1551 195.272 48.9185 202.467 44.8415 205.326C40.7645 208.178 26.9065 215.651 27.4509 222.444C27.9953 229.237 36.6875 250.568 39.6756 255.456C42.6638 260.349 48.7762 268.905 50.9539 269.994" stroke="#263238" stroke-width="0.209117" stroke-linejoin="round"/>
<path d="M105.025 266.604L107.203 221.231" stroke="#263238" stroke-width="0.209117" stroke-linejoin="round"/>
<path d="M87.6343 201.533C87.6343 201.533 87.4982 205.882 85.735 209.551" stroke="#263238" stroke-width="0.209117" stroke-linejoin="round"/>
<path d="M89.4038 202.888C89.4038 202.888 90.4926 209 89.1315 214.302" stroke="#263238" stroke-width="0.209117" stroke-linejoin="round"/>
<path d="M54.4864 222.995C54.4864 222.995 50.6816 216.338 46.6046 213.894" stroke="#263238" stroke-width="0.209117" stroke-linejoin="round"/>
<path d="M48.1018 210.77C48.1018 210.77 52.1788 214.847 53.1315 218.107" stroke="#263238" stroke-width="0.209117" stroke-linejoin="round"/>
<path d="M48.238 239.705C48.238 239.705 41.7173 245.137 40.3562 249.35" stroke="#263238" stroke-width="0.209117" stroke-linejoin="round"/>
<path d="M45.6581 240.249C45.6581 240.249 40.9006 242.012 39.9541 244.87" stroke="#263238" stroke-width="0.209117" stroke-linejoin="round"/>
<path d="M85.2153 195.248C85.2153 195.248 84.7575 204.354 83.3964 205.95C82.0292 207.547 74.9702 207.887 71.5552 205.27C68.1402 202.653 61.3102 194.567 61.3102 194.567L61.8793 181.359C61.8793 181.359 67.1194 185.912 71.7841 190.812C76.455 195.705 85.2215 195.254 85.2215 195.254L85.2153 195.248Z" fill="white" stroke="#263238" stroke-width="0.209117" stroke-linejoin="round"/>
<path d="M90.2018 162.898C90.2018 162.898 91.2782 165.985 91.006 170.687C90.74 175.389 92.0825 178.612 91.1421 181.965C90.2018 185.318 87.2508 194.586 86.3104 195.662C85.37 196.739 77.7172 197.945 75.4343 197.005C73.1514 196.064 61.335 182.905 61.335 182.905C61.335 182.905 56.3671 180.486 55.4268 177.665C54.4864 174.844 54.6225 174.176 54.6225 174.176C54.6225 174.176 56.6393 168.936 57.0415 167.463C57.4436 165.991 59.7265 156.587 67.5154 154.305C75.3044 152.022 81.3487 154.039 83.4955 154.843C85.6422 155.647 88.0612 157.93 88.0612 157.93L90.208 162.898H90.2018Z" fill="white" stroke="#263238" stroke-width="0.209117" stroke-linejoin="round"/>
<path d="M86.0444 175.655C86.0444 175.655 88.5933 179.818 87.523 180.622C86.4465 181.427 81.3487 182.231 79.8701 181.427C78.3915 180.622 79.1958 178.606 79.1958 178.606C79.1958 178.606 75.5704 178.872 73.9557 180.486" stroke="#263238" stroke-width="0.209117" stroke-linejoin="round"/>
<path d="M86.1742 183.716C86.1742 183.716 79.4617 184.792 73.0152 182.509C73.0152 182.509 75.0321 186.809 79.7277 187.477C84.4234 188.145 86.1742 183.716 86.1742 183.716Z" fill="white" stroke="#263238" stroke-width="0.209117" stroke-linejoin="round"/>
<path d="M86.533 171.441C86.533 172.301 86.9908 172.994 87.56 172.994C88.1291 172.994 88.5869 172.295 88.5869 171.441C88.5869 170.588 88.1291 169.889 87.56 169.889C86.9908 169.889 86.533 170.588 86.533 171.441Z" fill="#263238"/>
<path d="M76.5045 174.392C77.0717 174.392 77.5315 173.697 77.5315 172.84C77.5315 171.982 77.0717 171.287 76.5045 171.287C75.9373 171.287 75.4775 171.982 75.4775 172.84C75.4775 173.697 75.9373 174.392 76.5045 174.392Z" fill="#263238"/>
<path d="M86.0443 172.97C86.0443 172.97 86.8486 174.046 89.4036 174.714" stroke="#263238" stroke-width="0.209117" stroke-linejoin="round"/>
<path d="M77.1912 175.123C77.1912 175.123 75.2795 176.36 73.3617 176.248" stroke="#263238" stroke-width="0.209117" stroke-linejoin="round"/>
<path d="M79.4492 166.789C79.4492 166.789 76.2136 166.269 74.5742 166.808C72.9347 167.346 71.2396 169.245 71.5675 170.118C71.8954 170.984 73.2502 169.01 75.2238 168.435C77.1973 167.859 79.1337 167.965 79.907 167.76C80.6742 167.556 79.4492 166.795 79.4492 166.795V166.789Z" fill="#263238" stroke="#263238" stroke-width="0.209117" stroke-linecap="round" stroke-linejoin="round"/>
<path d="M84.2625 166.3C84.2625 166.3 86.6567 165.23 87.9807 165.508C89.3108 165.787 90.8884 167.47 90.7646 168.416C90.6409 169.363 89.317 167.556 87.727 167.29C86.137 167.024 84.6708 167.457 84.0583 167.371C83.4397 167.284 84.2625 166.3 84.2625 166.3Z" fill="#263238" stroke="#263238" stroke-width="0.209117" stroke-linecap="round" stroke-linejoin="round"/>
<path d="M64.4222 148.798C64.4222 148.798 71.809 144.233 79.0597 145.309C86.3104 146.386 93.159 150.815 93.2951 152.294C93.4312 153.772 89.9358 154.038 89.9358 154.038C89.9358 154.038 93.4251 157.126 92.7569 159.947C92.0826 162.768 90.208 162.904 90.208 162.904L88.0613 157.936C88.0613 157.936 80.1362 158.338 76.783 157.8C73.4299 157.262 71.4131 156.594 71.4131 156.594L65.3687 159.817C65.3687 159.817 71.8152 161.295 70.8748 162.236C69.9345 163.176 66.9834 163.04 66.9834 163.04C66.9834 163.04 70.0706 167.34 69.2663 168.546C68.462 169.753 64.9666 172.171 64.9666 172.171C64.9666 172.171 66.0431 175.797 65.3687 176.601C64.6944 177.405 62.8198 176.601 62.4115 176.063C62.0094 175.525 59.3244 172.704 59.3244 172.704L54.6226 174.182C54.6226 174.182 50.9972 166.529 51.2632 163.306C51.5292 160.083 53.41 156.055 55.4268 155.251C57.4437 154.447 58.7862 153.37 58.7862 153.37C58.7862 153.37 60.1287 148.539 61.4712 147.06C62.8136 145.581 64.2922 147.06 64.4284 148.805L64.4222 148.798Z" fill="#263238" stroke="#263238" stroke-width="0.209117" stroke-linecap="round" stroke-linejoin="round"/>
<path d="M58.3655 170.687L73.2134 194.097C73.5289 194.598 73.399 195.26 72.9164 195.6L62.7765 202.746C62.2321 203.129 61.4773 202.95 61.1618 202.362L48.5659 178.878C48.3246 178.426 48.4236 177.869 48.801 177.529L56.6889 170.464C57.2024 170.006 58.0005 170.118 58.3655 170.699V170.687Z" fill="url(#paint7_linear_7_876)" stroke="#263238" stroke-width="0.209117" stroke-linejoin="round"/>
<path d="M71.4378 194.338C71.4378 194.338 71.8956 197.073 72.805 197.184C73.7144 197.295 74.5125 195.136 74.5125 195.136C74.5125 195.136 72.9164 190.243 72.5761 190.014C72.2358 189.785 69.8416 185.801 69.1611 185.12C68.4806 184.44 67.3422 184.211 67.3422 184.211C67.3422 184.211 64.7253 181.247 64.0386 181.136C63.358 181.025 60.6235 182.732 60.6235 182.732C60.6235 182.732 58.6624 177.393 57.753 176.255C56.8435 175.116 54.474 173.625 54.3627 174.993C54.2513 176.36 56.0331 179.274 56.8312 182.8C57.6292 186.326 57.7777 188.77 57.4374 191.276C57.0972 193.781 56.7569 197.085 57.3261 199.133C57.8952 201.181 61.7681 210.974 61.7681 210.974L61.997 212.91L70.7634 214.507C70.7634 214.507 72.9287 209.495 72.8112 207.905C72.6998 206.309 69.854 195.953 69.854 195.953L70.3118 194.134L71.4501 194.363L71.4378 194.338Z" fill="white" stroke="#263238" stroke-width="0.209117" stroke-linejoin="round"/>
<path d="M72.5761 190.014C72.5761 190.014 70.9799 188.195 69.9591 188.875C68.9321 189.556 66.773 193.429 66.5441 193.769C66.3152 194.109 65.746 196.046 65.746 196.726" stroke="#263238" stroke-width="0.209117" stroke-linejoin="round"/>
<path d="M67.3422 184.204C67.3422 184.204 63.5869 190.694 63.1291 191.604C62.6713 192.513 61.6505 194.561 61.7619 195.705" stroke="#263238" stroke-width="0.209117" stroke-linejoin="round"/>
<path d="M65.8575 186.71L64.0386 185.46L63.1292 186.821V191.604L65.8575 186.71Z" fill="url(#paint8_linear_7_876)" stroke="#263238" stroke-width="0.209117" stroke-linejoin="round"/>
<path d="M60.6236 182.726C60.6236 182.726 59.3739 182.726 59.145 184.433C58.9161 186.141 58.5758 193.311 58.5758 193.311" stroke="#263238" stroke-width="0.209117" stroke-linejoin="round"/>
<path d="M45.2498 264.841C45.2498 264.841 49.1906 268.782 51.9066 270.953C54.6225 273.125 61.0071 271.498 63.5931 270.409C66.1791 269.32 68.3506 257.64 68.3506 257.64C68.3506 257.64 75.4157 232.503 75.5518 231.557C75.6879 230.604 75.9601 227.888 74.7352 226.397C73.5102 224.9 62.6465 219.877 61.966 219.74L57.7529 221.374C57.7529 221.374 53.9481 222.326 52.8593 225.042C51.7704 227.758 42.5338 256.427 42.3977 257.374" fill="url(#paint9_linear_7_876)"/>
<path d="M73.875 234.056C70.5899 234.056 68.9319 235.083 67.3234 236.073C65.8015 237.013 64.36 237.904 61.4275 237.904C58.4951 237.904 57.0536 237.013 55.5317 236.073C54.0655 235.164 52.5559 234.236 49.7967 234.081C49.6668 234.483 49.5307 234.891 49.3946 235.312C52.0424 235.393 53.4344 236.234 54.8759 237.131C56.4782 238.121 58.1363 239.148 61.4275 239.148C64.7188 239.148 66.3768 238.121 67.9792 237.131C69.5011 236.191 70.9426 235.3 73.875 235.3C74.1163 235.3 74.3328 235.312 74.5556 235.325C74.6731 234.885 74.7845 234.477 74.8896 234.1C74.5679 234.075 74.2338 234.062 73.8812 234.062L73.875 234.056Z" fill="white"/>
<path d="M61.4277 221.924C63.1228 221.924 64.3849 221.652 65.4304 221.25C64.7994 220.953 64.2117 220.687 63.7106 220.458C63.0548 220.594 62.3186 220.687 61.4339 220.687C60.8276 220.687 60.2955 220.644 59.8006 220.569L57.7528 221.361C58.7365 221.695 59.9058 221.918 61.4339 221.918L61.4277 221.924Z" fill="white"/>
<path d="M67.3296 253.297C65.8077 254.237 64.3663 255.128 61.4338 255.128C58.5013 255.128 57.0599 254.237 55.5379 253.297C53.9356 252.307 52.2776 251.28 48.9863 251.28C46.654 251.28 45.1444 251.799 43.8885 252.449C43.6906 253.08 43.505 253.662 43.3441 254.194C44.7794 253.309 46.2147 252.517 48.9863 252.517C51.925 252.517 53.3603 253.408 54.8822 254.348C56.4845 255.338 58.1425 256.365 61.4338 256.365C64.7251 256.365 66.3831 255.338 67.9854 254.348C68.4865 254.039 68.9815 253.736 69.5197 253.47C69.6558 252.981 69.7981 252.468 69.9528 251.923C68.9382 252.301 68.1277 252.802 67.3358 253.297H67.3296Z" fill="white"/>
<path d="M48.9864 261.129C51.9251 261.129 53.3604 262.02 54.8823 262.96C56.4846 263.95 58.1426 264.977 61.4339 264.977C64.0323 264.977 65.6099 264.34 66.9462 263.579C67.1132 262.991 67.2617 262.416 67.404 261.859L67.3298 261.902C65.8078 262.843 64.3664 263.733 61.4339 263.733C58.5014 263.733 57.06 262.843 55.5381 261.902C53.9357 260.912 52.2777 259.885 48.9864 259.885C46.6108 259.885 45.0888 260.424 43.8206 261.092L44.266 262.255C45.4477 261.611 46.8025 261.123 48.9864 261.123V261.129Z" fill="white"/>
<path d="M61.4276 230.536C64.7127 230.536 66.3769 229.509 67.9792 228.519C69.5012 227.579 70.9426 226.688 73.8751 226.688C74.2649 226.688 74.6237 226.707 74.9639 226.737C74.8897 226.62 74.8155 226.502 74.7288 226.397C74.5371 226.162 74.104 225.84 73.5101 225.457C70.4663 225.531 68.8701 226.515 67.3296 227.467C65.8077 228.408 64.3663 229.299 61.4338 229.299C58.5013 229.299 57.0599 228.408 55.5379 227.467C54.6409 226.911 53.7315 226.348 52.5251 225.958C52.4075 226.286 52.2714 226.682 52.1167 227.14C53.1994 227.486 54.0346 227.993 54.8884 228.519C56.4907 229.509 58.1487 230.536 61.44 230.536H61.4276Z" fill="white"/>
<path d="M54.8822 245.743C56.4846 246.733 58.1426 247.76 61.4339 247.76C64.7251 247.76 66.3832 246.733 67.9855 245.743C69.1733 245.007 70.3178 244.307 72.1553 244.035C72.279 243.602 72.3966 243.169 72.5141 242.736C70.1013 242.977 68.697 243.843 67.3297 244.685C65.8078 245.625 64.3663 246.516 61.4339 246.516C58.5014 246.516 57.0599 245.625 55.538 244.685C53.9357 243.695 52.2777 242.668 48.9864 242.668C48.2316 242.668 47.5635 242.724 46.9634 242.823C46.8149 243.274 46.6726 243.726 46.5303 244.178C47.2294 244.017 48.0213 243.912 48.9864 243.912C51.925 243.912 53.3603 244.802 54.8822 245.743Z" fill="white"/>
<path d="M45.2498 264.841C45.2498 264.841 49.1906 268.782 51.9066 270.953C54.6225 273.125 61.0071 271.498 63.5931 270.409C66.1791 269.32 68.3506 257.64 68.3506 257.64C68.3506 257.64 75.4157 232.503 75.5518 231.557C75.6879 230.604 75.9601 227.888 74.7352 226.397C73.5102 224.9 62.6465 219.877 61.966 219.74L57.7529 221.374C57.7529 221.374 53.9481 222.326 52.8593 225.042C51.7704 227.758 42.5338 256.427 42.3977 257.374" stroke="#263238" stroke-width="0.209117" stroke-linejoin="round"/>
<path d="M57.7468 221.367C57.7468 221.367 58.9717 208.871 60.3266 208.598C61.6877 208.326 71.3326 210.095 73.6402 212.131C75.9478 214.166 75.1374 215.255 74.8652 216.48C74.593 217.705 72.4648 224.974 72.4648 224.974C72.4648 224.974 59.2378 221.374 57.7468 221.374V221.367Z" fill="url(#paint10_linear_7_876)" stroke="#263238" stroke-width="0.209117" stroke-linejoin="round"/>
<path d="M237.555 127.615C237.555 127.615 247.175 85.9361 249.68 78.5493C252.192 71.1625 246.476 67.6794 240.203 65.1676C233.929 62.6559 217.9 53.877 217.9 53.877L193.085 54.7122C193.085 54.7122 183.051 63.0766 179.147 65.3037C175.243 67.5309 167.299 70.0427 167.299 78.1286C167.299 86.2145 164.509 126.638 164.509 126.638" fill="url(#paint11_linear_7_876)"/>
<path d="M237.555 127.615C237.555 127.615 247.175 85.9361 249.68 78.5493C252.192 71.1625 246.476 67.6794 240.203 65.1676C233.929 62.6559 217.9 53.877 217.9 53.877L193.085 54.7122C193.085 54.7122 183.051 63.0766 179.147 65.3037C175.243 67.5309 167.299 70.0427 167.299 78.1286C167.299 86.2145 164.509 126.638 164.509 126.638" stroke="#263238" stroke-width="0.209117" stroke-linejoin="round"/>
<path d="M210.123 61.0907H209.938V68.329H210.123V61.0907Z" fill="#263238"/>
<path d="M210.123 54.1369L209.938 54.1431V60.9051H210.123V54.1369Z" fill="#263238"/>
<path d="M210.123 71.9791V68.5146H209.938V71.9791V72.1338H210.123V71.9791Z" fill="#263238"/>
<path d="M224.971 57.6695C224.909 57.6386 224.847 57.6014 224.786 57.5705V60.8989H224.971V57.6633V57.6695Z" fill="#263238"/>
<path d="M224.971 61.0907H224.786V68.329H224.971V61.0907Z" fill="#263238"/>
<path d="M224.786 72.1338H224.971V71.9791V68.5146H224.786V71.9791V72.1338Z" fill="#263238"/>
<path d="M239.634 71.9791V72.1338H239.819V71.9791V68.5146H239.634V71.9791Z" fill="#263238"/>
<path d="M239.819 65.0068C239.757 64.9821 239.695 64.9573 239.634 64.9326V68.329H239.819V65.0068Z" fill="#263238"/>
<path d="M217.547 68.329V68.5146H224.786H224.971H232.21V68.329H224.971H224.786H217.547Z" fill="#263238"/>
<path d="M239.633 68.5146H246.562C246.482 68.4528 246.395 68.3909 246.309 68.329H232.395V68.5146H239.633Z" fill="#263238"/>
<path d="M209.938 68.329H206.473V68.5146H209.938H210.123H217.362V68.329H210.123H209.938Z" fill="#263238"/>
<path d="M224.786 61.0907H231.566C231.443 61.0288 231.325 60.967 231.201 60.9051H217.547V61.0907H224.786Z" fill="#263238"/>
<path d="M209.938 61.0907H210.123H217.362V60.9051H210.123H209.938H206.473V61.0907H209.938Z" fill="#263238"/>
<path d="M217.362 68.329V68.5146V71.9791V72.1338H217.547V71.9791V68.5146V68.329V61.0907V60.9051V53.8895L217.362 53.8956V60.9051V61.0907V68.329Z" fill="#263238"/>
<path d="M232.21 71.9791V72.1338H232.395V61.5114C232.333 61.4804 232.272 61.4495 232.21 61.4186V71.9791Z" fill="#263238"/>
<path d="M247.243 71.9791V69.0652C247.181 69.0096 247.119 68.9539 247.057 68.9044V72.1338H247.243V71.9791Z" fill="#263238"/>
<path d="M206.473 68.329H206.319V68.5146H206.473V68.329Z" fill="#263238"/>
<path d="M206.473 60.9051H206.319V61.0907H206.473V60.9051Z" fill="#263238"/>
<path d="M210.123 75.9386H209.938V83.1769H210.123V75.9386Z" fill="#263238"/>
<path d="M210.123 72.2885H209.938V75.753H210.123V72.2885Z" fill="#263238"/>
<path d="M210.123 105.634H209.938V112.873H210.123V105.634Z" fill="#263238"/>
<path d="M209.938 116.523V116.677H210.123V116.523V113.058H209.938V116.523Z" fill="#263238"/>
<path d="M210.123 83.3625H209.938V90.6009H210.123V83.3625Z" fill="#263238"/>
<path d="M210.123 98.2104H209.938V105.449H210.123V98.2104Z" fill="#263238"/>
<path d="M210.123 90.7865H209.938V98.0248H210.123V90.7865Z" fill="#263238"/>
<path d="M224.971 75.9386H224.786V83.1769H224.971V75.9386Z" fill="#263238"/>
<path d="M224.971 105.634H224.786V112.873H224.971V105.634Z" fill="#263238"/>
<path d="M224.971 90.7865H224.786V98.0248H224.971V90.7865Z" fill="#263238"/>
<path d="M224.971 72.2885H224.786V75.753H224.971V72.2885Z" fill="#263238"/>
<path d="M224.971 83.3625H224.786V90.6009H224.971V83.3625Z" fill="#263238"/>
<path d="M224.971 98.2104H224.786V105.449H224.971V98.2104Z" fill="#263238"/>
<path d="M224.786 116.677H224.971V116.523V113.058H224.786V116.523V116.677Z" fill="#263238"/>
<path d="M239.819 72.2885H239.634V75.753H239.819V72.2885Z" fill="#263238"/>
<path d="M239.819 105.634H239.634V112.873H239.819V105.634Z" fill="#263238"/>
<path d="M239.819 83.3625H239.634V90.6009H239.819V83.3625Z" fill="#263238"/>
<path d="M239.819 75.9386H239.634V83.1769H239.819V75.9386Z" fill="#263238"/>
<path d="M239.819 90.7865H239.634V98.0248H239.819V90.7865Z" fill="#263238"/>
<path d="M239.634 116.523V116.677H239.819V116.523V113.058H239.634V116.523Z" fill="#263238"/>
<path d="M239.819 98.2104H239.634V105.449H239.819V98.2104Z" fill="#263238"/>
<path d="M232.395 112.873V113.058H240.957L241.001 112.873H232.395Z" fill="#263238"/>
<path d="M210.123 112.873H209.938H206.473V113.058H209.938H210.123H217.362V112.873H210.123Z" fill="#263238"/>
<path d="M224.786 112.873H217.547V113.058H224.786H224.971H232.21V112.873H224.971H224.786Z" fill="#263238"/>
<path d="M232.395 98.0248V98.2104H244.521L244.564 98.0248H232.389H232.395Z" fill="#263238"/>
<path d="M209.938 98.0248H206.473V98.2104H209.938H210.123H217.362V98.0248H210.123H209.938Z" fill="#263238"/>
<path d="M224.786 98.0248H217.547V98.2104H224.786H224.971H232.21V98.0248H224.971H224.786Z" fill="#263238"/>
<path d="M248.283 83.3625L248.332 83.1769H247.243V83.3625H248.283Z" fill="#263238"/>
<path d="M239.819 83.1769H239.633H232.395V83.3625H239.633H239.819H247.057V83.1769H239.819Z" fill="#263238"/>
<path d="M209.938 83.1769H206.473V83.3625H209.938H210.123H217.362V83.1769H210.123H209.938Z" fill="#263238"/>
<path d="M224.786 83.1769H217.547V83.3625H224.786H224.971H232.21V83.1769H224.971H224.786Z" fill="#263238"/>
<path d="M232.395 105.449V105.634H242.727L242.77 105.449H232.395Z" fill="#263238"/>
<path d="M209.938 105.449H206.473V105.634H209.938H210.123H217.362V105.449H210.123H209.938Z" fill="#263238"/>
<path d="M224.786 105.449H217.547V105.634H224.786H224.971H232.21V105.449H224.971H224.786Z" fill="#263238"/>
<path d="M232.395 90.6009V90.7865H246.358C246.377 90.7246 246.389 90.6627 246.408 90.6009H232.395Z" fill="#263238"/>
<path d="M209.938 90.6009H206.473V90.7865H209.938H210.123H217.362V90.6009H210.123H209.938Z" fill="#263238"/>
<path d="M224.786 90.6009H217.547V90.7865H224.786H224.971H232.21V90.6009H224.971H224.786Z" fill="#263238"/>
<path d="M209.938 75.9386H210.123H217.362V75.753H210.123H209.938H206.473V75.9386H209.938Z" fill="#263238"/>
<path d="M250.25 75.9386C250.25 75.8767 250.25 75.8149 250.262 75.753H247.243V75.9386H250.25Z" fill="#263238"/>
<path d="M232.395 75.753V75.9386H239.633H239.819H247.057V75.753H239.819H239.633H232.395Z" fill="#263238"/>
<path d="M224.786 75.753H217.547V75.9386H224.786H224.971H232.21V75.753H224.971H224.786Z" fill="#263238"/>
<path d="M217.362 83.1769V83.3625V90.6009V90.7865V98.0248V98.2104V105.449V105.634V112.873V113.058V116.523V116.677H217.547V116.523V113.058V112.873V105.634V105.449V98.2104V98.0248V90.7865V90.6009V83.3625V83.1769V75.9386V75.753V72.2885H217.362V75.753V75.9386V83.1769Z" fill="#263238"/>
<path d="M232.395 105.634V105.449V98.2104V98.0248V90.7865V90.6009V83.3625V83.1769V75.9386V75.753V72.2885H232.21V75.753V75.9386V83.1769V83.3625V90.6009V90.7865V98.0248V98.2104V105.449V105.634V112.873V113.058V116.523V116.677H232.395V116.523V113.058V112.873V105.634Z" fill="#263238"/>
<path d="M247.057 83.1769V88.0334C247.119 87.786 247.181 87.5447 247.243 87.3096V72.2885H247.057V83.1769Z" fill="#263238"/>
<path d="M206.473 112.873H206.319V113.058H206.473V112.873Z" fill="#263238"/>
<path d="M206.473 98.0248H206.319V98.2104H206.473V98.0248Z" fill="#263238"/>
<path d="M206.473 83.1769H206.319V83.3625H206.473V83.1769Z" fill="#263238"/>
<path d="M206.473 105.449H206.319V105.634H206.473V105.449Z" fill="#263238"/>
<path d="M206.473 90.6009H206.319V90.7865H206.473V90.6009Z" fill="#263238"/>
<path d="M206.473 75.753H206.319V75.9386H206.473V75.753Z" fill="#263238"/>
<path d="M210.123 72.1338H209.938V72.2885H210.123V72.1338Z" fill="#263238"/>
<path d="M224.971 72.1338H224.786V72.2885H224.971V72.1338Z" fill="#263238"/>
<path d="M239.819 72.1338H239.634V72.2885H239.819V72.1338Z" fill="#263238"/>
<path d="M217.547 72.1338H217.362V72.2885H217.547V72.1338Z" fill="#263238"/>
<path d="M232.395 72.1338H232.21V72.2885H232.395V72.1338Z" fill="#263238"/>
<path d="M247.243 72.1338H247.057V72.2885H247.243V72.1338Z" fill="#263238"/>
<path d="M209.979 120.482L209.89 127.244L210.075 127.246L210.165 120.485L209.979 120.482Z" fill="#263238"/>
<path d="M210.123 116.832H209.938V120.297H210.123V116.832Z" fill="#263238"/>
<path d="M224.971 116.832H224.786V120.297H224.971V116.832Z" fill="#263238"/>
<path d="M224.827 120.472L224.735 127.438L224.921 127.44L225.013 120.475L224.827 120.472Z" fill="#263238"/>
<path d="M239.634 118.688C239.695 118.428 239.757 118.162 239.819 117.896V116.832H239.634V118.688Z" fill="#263238"/>
<path d="M210.123 120.297H209.938H206.473V120.482H209.938H210.123H217.362V120.297H210.123Z" fill="#263238"/>
<path d="M239.213 120.482L239.256 120.297H232.395V120.482H239.213Z" fill="#263238"/>
<path d="M224.971 120.297H224.786H217.547V120.482H224.786H224.971H232.21V120.297H224.971Z" fill="#263238"/>
<path d="M217.547 116.832H217.362V120.297V120.482V127.343L217.547 127.349V120.482V120.297V116.832Z" fill="#263238"/>
<path d="M232.21 120.297V120.482V127.541L232.395 127.547V120.482V120.297V116.832H232.21V120.297Z" fill="#263238"/>
<path d="M206.473 120.297H206.319V120.482H206.473V120.297Z" fill="#263238"/>
<path d="M210.123 116.677H209.938V116.832H210.123V116.677Z" fill="#263238"/>
<path d="M224.971 116.677H224.786V116.832H224.971V116.677Z" fill="#263238"/>
<path d="M239.819 116.677H239.634V116.832H239.819V116.677Z" fill="#263238"/>
<path d="M217.547 116.677H217.362V116.832H217.547V116.677Z" fill="#263238"/>
<path d="M232.395 116.677H232.21V116.832H232.395V116.677Z" fill="#263238"/>
<path d="M180.428 64.5057C180.366 64.549 180.304 64.5861 180.242 64.6294V68.329H180.428V64.5057Z" fill="#263238"/>
<path d="M180.428 71.9791V68.5146H180.242V71.9791V72.1338H180.428V71.9791Z" fill="#263238"/>
<path d="M195.276 54.638L195.09 54.6442V60.9051H195.276V54.638Z" fill="#263238"/>
<path d="M195.276 61.0907H195.09V68.329H195.276V61.0907Z" fill="#263238"/>
<path d="M195.276 71.9791V68.5146H195.09V71.9791V72.1338H195.276V71.9791Z" fill="#263238"/>
<path d="M187.666 68.5146V68.329H173.492C173.393 68.3909 173.294 68.4528 173.195 68.5146H187.666Z" fill="#263238"/>
<path d="M206.319 68.5146V68.329H206.164H202.699V68.5146H206.164H206.319Z" fill="#263238"/>
<path d="M195.275 68.5146H202.514V68.329H195.275H195.09H187.852V68.5146H195.09H195.275Z" fill="#263238"/>
<path d="M185.364 60.9051C185.284 60.967 185.204 61.0288 185.123 61.0907H187.666V60.9051H185.364Z" fill="#263238"/>
<path d="M195.09 61.0907H195.275H202.514V60.9051H195.275H195.09H187.852V61.0907H195.09Z" fill="#263238"/>
<path d="M206.164 61.0907H206.319V60.9051H206.164H202.699V61.0907H206.164Z" fill="#263238"/>
<path d="M173.004 71.9791V68.6384C172.942 68.6817 172.88 68.7188 172.818 68.7621V72.1338H173.004V71.9791Z" fill="#263238"/>
<path d="M187.666 71.9792V72.1338H187.851V58.9563C187.79 59.0058 187.728 59.0553 187.666 59.1048V71.9792Z" fill="#263238"/>
<path d="M202.514 68.329V68.5146V71.9791V72.1338H202.699V71.9791V68.5146V68.329V61.0907V60.9051V54.3906L202.514 54.3968V60.9051V61.0907V68.329Z" fill="#263238"/>
<path d="M165.58 110.528C165.53 111.326 165.481 112.106 165.431 112.873H165.58V110.528Z" fill="#263238"/>
<path d="M165.58 116.523V113.058H165.419L165.394 113.405V116.677H165.58V116.523Z" fill="#263238"/>
<path d="M180.428 105.634H180.242V112.873H180.428V105.634Z" fill="#263238"/>
<path d="M180.428 90.7865H180.242V98.0248H180.428V90.7865Z" fill="#263238"/>
<path d="M180.428 72.2885H180.242V75.753H180.428V72.2885Z" fill="#263238"/>
<path d="M180.428 98.2104H180.242V105.449H180.428V98.2104Z" fill="#263238"/>
<path d="M180.428 83.3625H180.242V90.6009H180.428V83.3625Z" fill="#263238"/>
<path d="M180.428 75.9386H180.242V83.1769H180.428V75.9386Z" fill="#263238"/>
<path d="M180.428 116.523V113.058H180.242V116.523V116.677H180.428V116.523Z" fill="#263238"/>
<path d="M195.276 98.2104H195.09V105.449H195.276V98.2104Z" fill="#263238"/>
<path d="M195.276 72.2885H195.09V75.753H195.276V72.2885Z" fill="#263238"/>
<path d="M195.276 83.3625H195.09V90.6009H195.276V83.3625Z" fill="#263238"/>
<path d="M195.276 105.634H195.09V112.873H195.276V105.634Z" fill="#263238"/>
<path d="M195.276 75.9386H195.09V83.1769H195.276V75.9386Z" fill="#263238"/>
<path d="M195.276 90.7865H195.09V98.0248H195.276V90.7865Z" fill="#263238"/>
<path d="M195.09 116.523V116.677H195.276V116.523V113.058H195.09V116.523Z" fill="#263238"/>
<path d="M172.818 113.058V112.873H165.431L165.419 113.058H172.818Z" fill="#263238"/>
<path d="M206.164 112.873H202.699V113.058H206.164H206.319V112.873H206.164Z" fill="#263238"/>
<path d="M180.427 113.058H187.666V112.873H180.427H180.242H173.003V113.058H180.242H180.427Z" fill="#263238"/>
<path d="M195.275 113.058H202.514V112.873H195.275H195.09H187.852V113.058H195.09H195.275Z" fill="#263238"/>
<path d="M166.359 98.0248L166.347 98.2104H172.818V98.0248H166.359Z" fill="#263238"/>
<path d="M206.319 98.2104V98.0248H206.164H202.699V98.2104H206.164H206.319Z" fill="#263238"/>
<path d="M180.427 98.2104H187.666V98.0248H180.427H180.242H173.003V98.2104H180.242H180.427Z" fill="#263238"/>
<path d="M195.275 98.2104H202.514V98.0248H195.275H195.09H187.852V98.2104H195.09H195.275Z" fill="#263238"/>
<path d="M167.151 83.1769V83.3625H172.818V83.1769H167.151Z" fill="#263238"/>
<path d="M206.319 83.3625V83.1769H206.164H202.699V83.3625H206.164H206.319Z" fill="#263238"/>
<path d="M180.427 83.3625H187.666V83.1769H180.427H180.242H173.003V83.3625H180.242H180.427Z" fill="#263238"/>
<path d="M195.275 83.3625H202.514V83.1769H195.275H195.09H187.852V83.3625H195.09H195.275Z" fill="#263238"/>
<path d="M165.901 105.449L165.889 105.634H172.818V105.449H165.901Z" fill="#263238"/>
<path d="M206.319 105.634V105.449H206.164H202.699V105.634H206.164H206.319Z" fill="#263238"/>
<path d="M180.427 105.634H187.666V105.449H180.427H180.242H173.003V105.634H180.242H180.427Z" fill="#263238"/>
<path d="M195.275 105.634H202.514V105.449H195.275H195.09H187.852V105.634H195.09H195.275Z" fill="#263238"/>
<path d="M166.786 90.6009L166.774 90.7865H172.818V90.6009H166.786Z" fill="#263238"/>
<path d="M206.319 90.7865V90.6009H206.164H202.699V90.7865H206.164H206.319Z" fill="#263238"/>
<path d="M180.427 90.7865H187.666V90.6009H180.427H180.242H173.003V90.7865H180.242H180.427Z" fill="#263238"/>
<path d="M195.275 90.7865H202.514V90.6009H195.275H195.09H187.852V90.7865H195.09H195.275Z" fill="#263238"/>
<path d="M206.164 75.9386H206.319V75.753H206.164H202.699V75.9386H206.164Z" fill="#263238"/>
<path d="M167.553 75.753C167.541 75.8149 167.522 75.8767 167.51 75.9386H172.818V75.753H167.553Z" fill="#263238"/>
<path d="M180.242 75.9386H180.427H187.666V75.753H180.427H180.242H173.003V75.9386H180.242Z" fill="#263238"/>
<path d="M195.275 75.9386H202.514V75.753H195.275H195.09H187.852V75.9386H195.09H195.275Z" fill="#263238"/>
<path d="M172.818 116.523V116.677H173.004V116.523V113.058V112.873V105.634V105.449V98.2104V98.0248V90.7865V90.6009V83.3625V83.1769V75.9386V75.753V72.2885H172.818V75.753V75.9386V83.1769V83.3625V90.6009V90.7865V98.0248V98.2104V105.449V105.634V112.873V113.058V116.523Z" fill="#263238"/>
<path d="M187.666 83.3625V90.6009V90.7865V98.0248V98.2104V105.449V105.634V112.873V113.058V116.523V116.677H187.851V116.523V113.058V112.873V105.634V105.449V98.2104V98.0248V90.7865V90.6009V83.3625V83.1769V75.9386V75.753V72.2885H187.666V75.753V75.9386V83.1769V83.3625Z" fill="#263238"/>
<path d="M202.514 83.1769V83.3625V90.6009V90.7865V98.0248V98.2104V105.449V105.634V112.873V113.058V116.523V116.677H202.699V116.523V113.058V112.873V105.634V105.449V98.2104V98.0248V90.7865V90.6009V83.3625V83.1769V75.9386V75.753V72.2885H202.514V75.753V75.9386V83.1769Z" fill="#263238"/>
<path d="M180.428 72.1338H180.242V72.2885H180.428V72.1338Z" fill="#263238"/>
<path d="M195.276 72.1338H195.09V72.2885H195.276V72.1338Z" fill="#263238"/>
<path d="M173.004 72.1338H172.818V72.2885H173.004V72.1338Z" fill="#263238"/>
<path d="M187.851 72.1338H187.666V72.2885H187.851V72.1338Z" fill="#263238"/>
<path d="M202.699 72.1338H202.514V72.2885H202.699V72.1338Z" fill="#263238"/>
<path d="M165.58 116.832H165.394V120.297H165.58V116.832Z" fill="#263238"/>
<path d="M165.437 120.481L165.353 126.648L165.538 126.651L165.622 120.483L165.437 120.481Z" fill="#263238"/>
<path d="M180.284 120.484L180.197 126.849L180.383 126.852L180.469 120.486L180.284 120.484Z" fill="#263238"/>
<path d="M180.428 116.832H180.242V120.297H180.428V116.832Z" fill="#263238"/>
<path d="M195.276 116.832H195.09V120.297H195.276V116.832Z" fill="#263238"/>
<path d="M195.131 120.48L195.044 127.043L195.23 127.045L195.317 120.482L195.131 120.48Z" fill="#263238"/>
<path d="M180.427 120.297H180.242H173.003V120.482H180.242H180.427H187.666V120.297H180.427Z" fill="#263238"/>
<path d="M165.58 120.297H164.936C164.936 120.359 164.93 120.42 164.924 120.482H172.812V120.297H165.574H165.58Z" fill="#263238"/>
<path d="M195.275 120.297H195.09H187.852V120.482H195.09H195.275H202.514V120.297H195.275Z" fill="#263238"/>
<path d="M206.164 120.297H202.699V120.482H206.164H206.319V120.297H206.164Z" fill="#263238"/>
<path d="M173.004 116.832H172.818V120.297V120.482V126.749L173.004 126.755V120.482V120.297V116.832Z" fill="#263238"/>
<path d="M187.851 116.832H187.666V120.297V120.482V126.947L187.851 126.953V120.482V120.297V116.832Z" fill="#263238"/>
<path d="M202.699 116.832H202.514V120.297V120.482V127.145L202.699 127.151V120.482V120.297V116.832Z" fill="#263238"/>
<path d="M165.58 116.677H165.394V116.832H165.58V116.677Z" fill="#263238"/>
<path d="M180.428 116.677H180.242V116.832H180.428V116.677Z" fill="#263238"/>
<path d="M195.276 116.677H195.09V116.832H195.276V116.677Z" fill="#263238"/>
<path d="M173.004 116.677H172.818V116.832H173.004V116.677Z" fill="#263238"/>
<path d="M187.851 116.677H187.666V116.832H187.851V116.677Z" fill="#263238"/>
<path d="M202.699 116.677H202.514V116.832H202.699V116.677Z" fill="#263238"/>
<path d="M230.316 74.2063L225.144 82.1932" stroke="#263238" stroke-width="0.209117" stroke-linejoin="round"/>
<path d="M229.846 71.0759C229.846 71.0759 227.495 73.2659 226.87 78.2833" stroke="#263238" stroke-width="0.209117" stroke-linejoin="round"/>
<path d="M213.996 47.6038L217.9 53.877C217.9 53.877 214.553 60.2864 213.297 62.2414C212.041 64.1963 203.12 69.7705 202.563 70.0489C202.006 70.3273 199.08 62.9404 199.08 62.9404C199.08 62.9404 209.257 57.7808 213.996 47.61V47.6038Z" fill="white" stroke="#263238" stroke-width="0.209117" stroke-linejoin="round"/>
<path d="M173.802 96.5153C172.929 106.513 171.463 121.905 170.362 126.223" stroke="#263238" stroke-width="0.209117" stroke-linejoin="round"/>
<path d="M174.544 87.6065C174.544 87.6065 174.389 89.5986 174.13 92.6919" stroke="#263238" stroke-width="0.209117" stroke-linejoin="round"/>
<path d="M196.568 61.1216L193.364 67.5309C193.364 67.5309 189.602 65.1615 189.045 60.1441C188.489 55.1268 192.807 51.3653 192.807 51.3653L196.568 61.1216Z" fill="white" stroke="#263238" stroke-width="0.209117" stroke-linejoin="round"/>
<path d="M191.136 47.3254C191.136 47.3254 192.528 51.9283 192.671 53.3203C192.813 54.7123 193.648 57.5024 196.574 61.1278C199.501 64.7532 203.683 61.8269 207.166 57.3663C210.649 52.9058 211.905 50.394 211.905 50.394L211.169 37.7609C211.169 37.7609 202.848 45.9335 191.136 47.3254Z" fill="white" stroke="#263238" stroke-width="0.209117" stroke-linejoin="round"/>
<path d="M188.297 14.5363C188.297 14.5363 185.389 20.061 185.241 21.9541C185.092 23.8472 185.241 24.2803 185.241 25.3011C185.241 26.3219 183.496 31.1165 183.496 35.3358C183.496 39.555 184.368 45.3705 185.241 47.1151C186.113 48.8597 189.169 49.732 191.637 49.299C194.112 48.8597 198.616 47.2636 202.687 46.1005C206.758 44.9374 213.012 38.5404 213.012 38.5404C213.012 38.5404 216.211 37.9589 218.104 34.1789C219.997 30.3988 217.955 26.9096 217.955 26.9096L214.899 24.2926C214.899 24.2926 210.971 22.6903 210.828 20.8034C210.686 18.9103 215.338 14.5487 209.956 11.2079C204.574 7.86097 191.637 9.31483 188.291 14.5549L188.297 14.5363Z" fill="white" stroke="#263238" stroke-width="0.209117" stroke-linejoin="round"/>
<path d="M211.558 29.6564C211.558 29.6564 208.942 30.0957 208.651 28.6356C208.36 27.1818 208.942 26.6002 208.36 25.5794C207.778 24.5587 203.268 23.2533 203.126 20.9271C202.984 18.6009 208.069 16.1263 206.615 14.6724C205.161 13.2186 202.396 11.3255 196.729 12.4886C191.056 13.6516 191.347 15.3963 188.297 14.524C185.241 13.6516 187.276 10.1624 187.276 10.1624C187.276 10.1624 183.787 12.3463 184.95 8.26928C186.113 4.19848 192.219 1 195.418 1C198.616 1 201.815 1.87231 201.815 1.87231C201.815 1.87231 208.793 0.127686 213.594 3.18388C218.395 6.24007 217.374 9.14778 216.941 9.72932C216.502 10.3109 216.211 11.3317 216.211 11.3317C216.211 11.3317 221.445 11.7709 222.317 16.8563C223.189 21.9417 220.863 23.111 220.282 23.6925C219.7 24.2741 219.409 26.4579 219.409 26.4579L218.828 29.0749C218.828 29.0749 215.19 26.0187 213.736 27.4726C212.282 28.9264 211.552 29.6564 211.552 29.6564H211.558Z" fill="#263238" stroke="#263238" stroke-width="0.209117" stroke-linejoin="round"/>
<path d="M188.148 24.2803C188.148 24.2803 188.878 24.571 188.439 26.4642C188 28.3573 184.51 33.0096 185.092 34.315C185.674 35.6265 190.846 36.604 192.299 35.874C193.753 35.144 193.945 32.9415 193.945 32.9415" stroke="#263238" stroke-width="0.209117" stroke-linejoin="round"/>
<path d="M185.241 47.1089C184.48 45.5932 183.725 40.9965 183.539 37.0494C184.387 36.2761 185.946 35.1563 185.946 35.1563C185.946 35.1563 188.946 35.7997 190.518 36.0163C192.089 36.2328 193.159 35.3048 193.159 35.3048C193.159 35.3048 196.946 36.2328 198.307 38.0888C199.426 39.6231 198.845 44.8941 198.325 47.4182C195.69 48.241 193.24 49.0082 191.638 49.2928C189.163 49.7258 186.113 48.8535 185.241 47.1089Z" fill="#263238" stroke="#263238" stroke-width="0.209117" stroke-linejoin="round"/>
<path d="M188.946 36.4432C188.946 36.4432 195.949 37.4454 196.735 38.1569C197.521 38.8683 197.162 41.7327 196.809 43.5145C196.457 45.2962 192.306 47.0161 191.52 46.3727C190.734 45.7293 191.019 42.7288 190.66 42.4442C190.301 42.1596 188.371 41.442 188.086 42.4442C187.802 43.4464 188.303 46.2304 187.802 46.2304C187.301 46.2304 186.088 44.4425 185.228 41.5843C184.368 38.726 184.869 37.5134 185.94 37.0804C187.01 36.6535 188.94 36.437 188.94 36.437L188.946 36.4432Z" fill="white" stroke="#263238" stroke-width="0.209117" stroke-linejoin="round"/>
<path d="M195.244 38.6147C195.244 38.6147 190.481 40.4459 186.206 38.7384" stroke="#263238" stroke-width="0.209117" stroke-linejoin="round"/>
<path d="M194.019 28.2582C194.019 28.9078 194.353 29.4399 194.768 29.4399C195.182 29.4399 195.517 28.914 195.517 28.2582C195.517 27.6025 195.182 27.0766 194.768 27.0766C194.353 27.0766 194.019 27.6025 194.019 28.2582Z" fill="#263238"/>
<path d="M186.837 28.1902C187.25 28.1902 187.585 27.6612 187.585 27.0086C187.585 26.356 187.25 25.8269 186.837 25.8269C186.423 25.8269 186.088 26.356 186.088 27.0086C186.088 27.6612 186.423 28.1902 186.837 28.1902Z" fill="#263238"/>
<path d="M191.378 25.2949C191.378 25.2949 194.663 24.7257 198.449 25.3691C200.979 25.796 201.951 26.5136 201.951 26.5136L201.307 31.2278C201.307 31.2278 200.59 31.8712 196.735 31.6547C192.881 31.4382 192.089 31.2278 191.303 30.3679C190.518 29.5079 191.378 25.2949 191.378 25.2949Z" stroke="#263238" stroke-width="0.209117" stroke-linejoin="round"/>
<path d="M188.445 25.2948C188.445 25.2948 188.575 24.0513 184.733 23.9523C182.166 23.8843 181.077 24.3978 181.077 24.3978L180.799 29.1491C180.799 29.1491 181.399 29.774 185.203 30.4483C186.731 30.7205 187.047 29.4213 187.659 28.4315C188.804 26.5755 188.445 25.2887 188.445 25.2887V25.2948Z" stroke="#263238" stroke-width="0.209117" stroke-linejoin="round"/>
<path d="M191.378 25.2949C191.378 25.2949 189.447 24.3669 188.445 25.2949" stroke="#263238" stroke-width="0.209117" stroke-linejoin="round"/>
<path d="M201.951 26.5074L213.173 27.652L212.387 28.3696L204.951 28.2273L204.023 28.7223L201.74 28.6542L201.951 26.5074Z" fill="#263238" stroke="#263238" stroke-width="0.209117" stroke-linejoin="round"/>
<path d="M200.095 24.6514C200.095 24.6514 198.95 23.1481 196.735 22.5789C194.52 22.0098 192.664 22.5047 192.732 23.08" stroke="#263238" stroke-width="0.209117" stroke-linejoin="round"/>
<path d="M188.519 23.1543C188.519 23.1543 187.517 21.4406 186.088 21.7994" stroke="#263238" stroke-width="0.209117" stroke-linejoin="round"/>
<path d="M215.035 28.6975L219.774 36.0967C220.183 36.7401 220.034 37.5877 219.428 38.0517L203.058 50.5239C202.328 51.0807 201.27 50.8332 200.862 50.0104L196.5 41.213C196.178 40.5634 196.383 39.7716 196.977 39.357L212.975 28.283C213.656 27.8128 214.596 27.9984 215.042 28.6975H215.035Z" fill="url(#paint12_linear_7_876)" stroke="#263238" stroke-width="0.209117" stroke-linejoin="round"/>
<path d="M209.152 64.8831C209.152 64.8831 209.059 60.67 209.337 59.6616C209.61 58.6531 216.669 45.8221 216.854 45.3643C217.04 44.9065 215.574 41.974 215.116 41.4234C214.658 40.8728 212.92 37.7609 212.734 36.7525C212.548 35.7441 211.175 36.5669 211.175 37.7609C211.175 38.9549 212.091 42.2524 212.548 42.803C213.006 43.3536 213.371 44.8198 213.371 44.8198L211.54 47.1089C211.54 47.1089 209.709 41.609 209.616 41.244C209.523 40.879 206.411 39.1343 205.675 38.4971C204.945 37.8537 204.759 37.7609 204.209 38.0393C203.658 38.3115 203.386 39.1405 203.386 39.1405C203.386 39.1405 202.866 39.023 202.316 39.4808C201.765 39.9386 201.876 40.5758 201.784 40.947L201.827 41.8008C201.827 41.8008 200.911 41.6152 200.453 42.073C199.996 42.5308 199.996 42.438 199.996 42.438C199.996 42.438 199.445 43.0814 200.181 43.632C200.917 44.1826 202.291 44.9869 202.705 46.0943C203.12 47.2017 200.917 52.6088 199.909 55.9991C198.901 59.3893 198.171 62.5074 198.993 63.9736C199.816 65.4399 201.74 68.8301 201.74 68.8301L209.164 64.8892L209.152 64.8831Z" fill="white" stroke="#263238" stroke-width="0.209117" stroke-linejoin="round"/>
<path d="M201.821 41.7946C201.821 41.7946 205.576 44.9993 205.762 45.5499C205.947 46.1005 205.879 48.5689 205.879 48.5689" stroke="#263238" stroke-width="0.209117" stroke-linejoin="round"/>
<path d="M203.38 39.1343C203.38 39.1343 207.414 42.6174 207.506 43.168C207.599 43.7186 208.75 48.1359 208.75 48.1359" stroke="#263238" stroke-width="0.209117" stroke-linejoin="round"/>
<path d="M212.573 49.268L211.534 47.1089" stroke="#263238" stroke-width="0.209117" stroke-linejoin="round"/>
<path d="M238.947 105.869C236.02 109.074 227.378 120.785 225.423 120.785C223.468 120.785 220.684 117.859 215.246 108.381C209.808 98.9033 203.955 78.5493 203.955 78.5493L199.495 67.9578L211.484 61.6846C211.484 61.6846 213.996 67.2587 213.996 67.6794C213.996 68.1001 236.719 97.5113 236.719 97.5113" fill="url(#paint13_linear_7_876)"/>
<path d="M238.947 105.869C236.02 109.074 227.378 120.785 225.423 120.785C223.468 120.785 220.684 117.859 215.246 108.381C209.808 98.9033 203.955 78.5493 203.955 78.5493L199.495 67.9578L211.484 61.6846C211.484 61.6846 213.996 67.2587 213.996 67.6794C213.996 68.1001 236.719 97.5113 236.719 97.5113" stroke="#263238" stroke-width="0.209117" stroke-linejoin="round"/>
<path d="M210.123 62.396L209.938 62.495V68.329H210.123V62.396Z" fill="#263238"/>
<path d="M210.123 71.9791V68.5146H209.938V71.9791V72.1338H210.123V71.9791Z" fill="#263238"/>
<path d="M214.559 68.5146C214.51 68.4466 214.466 68.3909 214.423 68.329H206.467V68.5146H214.553H214.559Z" fill="#263238"/>
<path d="M206.473 68.329H206.319V68.5146H206.473V68.329Z" fill="#263238"/>
<path d="M210.123 72.2885H209.938V75.753H210.123V72.2885Z" fill="#263238"/>
<path d="M210.123 75.9386H209.938V83.1769H210.123V75.9386Z" fill="#263238"/>
<path d="M209.938 96.5091C210 96.6699 210.061 96.837 210.123 96.9978V90.7864H209.938V96.5091Z" fill="#263238"/>
<path d="M210.123 83.3625H209.938V90.6009H210.123V83.3625Z" fill="#263238"/>
<path d="M224.971 82.2489L224.786 82.0077V83.1831H224.971V82.2551V82.2489Z" fill="#263238"/>
<path d="M224.786 116.523V116.677H224.971V116.523V113.058H224.786V116.523Z" fill="#263238"/>
<path d="M224.971 98.2104H224.786V105.449H224.971V98.2104Z" fill="#263238"/>
<path d="M224.971 105.634H224.786V112.873H224.971V105.634Z" fill="#263238"/>
<path d="M224.971 90.7864H224.786V98.0248H224.971V90.7864Z" fill="#263238"/>
<path d="M224.971 83.3625H224.786V90.6009H224.971V83.3625Z" fill="#263238"/>
<path d="M224.971 112.873H217.931C217.968 112.935 218.011 112.996 218.048 113.058H232.209V112.873H224.971Z" fill="#263238"/>
<path d="M233.032 113.058C233.082 112.996 233.131 112.935 233.181 112.873H232.395V113.058H233.032Z" fill="#263238"/>
<path d="M217.547 98.0248V98.2104H224.786H224.971H232.21V98.0248H224.971H224.786H217.547Z" fill="#263238"/>
<path d="M236.905 98.2104L236.856 98.0248H232.395V98.2104H236.905Z" fill="#263238"/>
<path d="M210.519 98.0248C210.544 98.0867 210.569 98.1485 210.593 98.2104H217.362V98.0248H210.519Z" fill="#263238"/>
<path d="M224.786 83.3625H225.825L225.683 83.1769H217.547V83.3625H224.786Z" fill="#263238"/>
<path d="M217.362 83.3625V83.1769H210.123H209.938H206.473V83.3625H209.938H210.123H217.362Z" fill="#263238"/>
<path d="M232.21 105.634V105.449H224.971H224.786H217.547V105.634H224.786H224.971H232.21Z" fill="#263238"/>
<path d="M213.712 105.449C213.743 105.511 213.773 105.572 213.804 105.634H217.362V105.449H213.712Z" fill="#263238"/>
<path d="M238.885 105.634L238.835 105.449H232.395V105.634H238.885Z" fill="#263238"/>
<path d="M210.123 90.6008H207.803C207.822 90.6627 207.847 90.7246 207.865 90.7864H217.362V90.6008H210.123Z" fill="#263238"/>
<path d="M217.547 90.6008V90.7864H231.535L231.393 90.6008H217.547Z" fill="#263238"/>
<path d="M217.362 75.9386V75.753H210.123H209.938H206.473V75.9386H209.938H210.123H217.362Z" fill="#263238"/>
<path d="M220.146 75.9386C220.096 75.8767 220.053 75.8148 220.003 75.753H217.547V75.9386H220.146Z" fill="#263238"/>
<path d="M217.547 98.2104V72.5174C217.491 72.4369 217.43 72.3689 217.374 72.2885H217.362V111.951C217.423 112.05 217.485 112.155 217.547 112.254V98.2104Z" fill="#263238"/>
<path d="M232.395 105.449V91.9062C232.333 91.8258 232.271 91.7454 232.21 91.6649V114.061C232.271 113.986 232.333 113.912 232.395 113.838V105.455V105.449Z" fill="#263238"/>
<path d="M206.473 83.1769H206.319V83.3625H206.473V83.1769Z" fill="#263238"/>
<path d="M206.473 75.753H206.319V75.9386H206.473V75.753Z" fill="#263238"/>
<path d="M210.123 72.1338H209.938V72.2885H210.123V72.1338Z" fill="#263238"/>
<path d="M217.362 72.2699V72.2888H217.374L217.362 72.2699Z" fill="#263238"/>
<path d="M224.971 116.832H224.786V120.297H224.971V116.832Z" fill="#263238"/>
<path d="M224.786 120.68C224.847 120.699 224.909 120.717 224.971 120.73V120.482H224.786V120.68Z" fill="#263238"/>
<path d="M223.957 120.297C224.068 120.365 224.179 120.427 224.285 120.482H226.147C226.227 120.427 226.32 120.365 226.407 120.297H223.95H223.957Z" fill="#263238"/>
<path d="M224.971 116.677H224.786V116.832H224.971V116.677Z" fill="#263238"/>
<path d="M199.656 68.329L199.736 68.5146H202.514V68.329H199.656Z" fill="#263238"/>
<path d="M206.164 68.329H202.699V68.5146H206.164H206.319V68.329H206.164Z" fill="#263238"/>
<path d="M202.699 66.2812L202.514 66.3741V68.329V68.5146V71.9791V72.1338H202.699V71.9791V68.5146V68.329V66.2812Z" fill="#263238"/>
<path d="M206.164 83.1769H205.366L205.421 83.3625H206.318V83.1769H206.164Z" fill="#263238"/>
<path d="M206.164 75.753H202.78L202.86 75.9386H206.164H206.318V75.753H206.164Z" fill="#263238"/>
<path d="M202.514 75.1157L202.699 75.555V72.2885H202.514V75.1157Z" fill="#263238"/>
<path d="M202.699 72.1338H202.514V72.2885H202.699V72.1338Z" fill="#263238"/>
<path d="M74.593 7.03195C74.593 7.03195 73.3557 5.46055 69.3097 7.37222C65.2636 9.28388 63.3519 16.8192 61.5516 21.7623C59.7513 26.7116 55.365 27.6087 54.1339 34.8037C52.8966 41.9987 62.1146 48.5194 71.7843 50.9941C81.454 53.4687 92.4724 51.7798 95.3925 48.8597C98.3125 45.9396 99.5499 44.8137 99.5499 44.8137C99.5499 44.8137 98.6528 48.4143 99.3272 48.074C100.001 47.7337 102.365 46.1623 103.825 38.5157C105.285 30.869 102.025 24.7999 102.025 24.7999C102.025 24.7999 106.745 24.0142 105.625 19.2877C104.499 14.5673 99.2158 7.70629 88.649 4.89757C78.0823 2.08884 75.2674 5.68327 74.593 7.03195Z" fill="#263238" stroke="#263238" stroke-width="0.209117" stroke-linecap="round" stroke-linejoin="round"/>
<path d="M96.8154 123.996C96.8154 123.996 96.9887 121.93 98.8261 115.434C100.664 108.938 106.671 77.8007 106.671 69.4673C106.671 61.134 92.2064 58.5603 91.4702 57.8241C90.734 57.0879 87.5479 53.2893 86.4467 51.9406C85.3454 50.592 83.9968 50.8394 83.9968 50.8394C83.9968 50.8394 82.8955 52.0644 83.0131 53.6605C83.1306 55.2567 91.9589 85.6515 91.7177 90.9225C91.4764 96.1935 88.5315 105.263 89.0203 107.837C89.509 110.41 91.2289 124.627 91.2289 124.627" fill="url(#paint14_linear_7_876)"/>
<path d="M96.8154 123.996C96.8154 123.996 96.9887 121.93 98.8261 115.434C100.664 108.938 106.671 77.8007 106.671 69.4673C106.671 61.134 92.2064 58.5603 91.4702 57.8241C90.734 57.0879 87.5479 53.2893 86.4467 51.9406C85.3454 50.592 83.9968 50.8394 83.9968 50.8394C83.9968 50.8394 82.8955 52.0644 83.0131 53.6605C83.1306 55.2567 91.9589 85.6515 91.7177 90.9225C91.4764 96.1935 88.5315 105.263 89.0203 107.837C89.509 110.41 91.2289 124.627 91.2289 124.627" stroke="#263238" stroke-width="0.209117" stroke-linejoin="round"/>
<path d="M98.7457 90.8236C98.4054 93.2858 97.7991 95.3274 97.3475 96.54" stroke="#263238" stroke-width="0.209117" stroke-linecap="round" stroke-linejoin="round"/>
<path d="M92.0455 60.3544C92.0455 60.3544 97.3475 76.8604 98.5539 82.6139C98.9312 84.4142 99.0426 86.2145 98.9931 87.9097" stroke="#263238" stroke-width="0.209117" stroke-linecap="round" stroke-linejoin="round"/>
<path d="M94.2913 124.745C94.2913 124.745 91.9651 107.094 91.2289 105.133C90.4927 103.172 96.4999 98.6373 96.6236 94.2262C96.7474 89.8151 90.536 73.4886 88.2903 66.3988C86.8983 62.0124 85.5929 59.6615 84.2442 53.4069C83.7926 51.3158 83.9967 48.6246 83.9967 48.6246L71.8586 41.7574C71.8586 41.7574 70.8749 44.8198 69.8974 47.3935C68.92 49.9671 67.2001 52.2995 66.8351 52.5407C66.47 52.782 61.5641 54.3782 61.5641 54.3782C61.5641 54.3782 59.9679 102.677 59.2379 112.112C58.5017 121.552 57.6417 125.351 57.6417 125.351" fill="white"/>
<path d="M94.2913 124.745C94.2913 124.745 91.9651 107.094 91.2289 105.133C90.4927 103.172 96.4999 98.6373 96.6236 94.2262C96.7474 89.8151 90.536 73.4886 88.2903 66.3988C86.8983 62.0124 85.5929 59.6615 84.2442 53.4069C83.7926 51.3158 83.9967 48.6246 83.9967 48.6246L71.8586 41.7574C71.8586 41.7574 70.8749 44.8198 69.8974 47.3935C68.92 49.9671 67.2001 52.2995 66.8351 52.5407C66.47 52.782 61.5641 54.3782 61.5641 54.3782C61.5641 54.3782 59.9679 102.677 59.2379 112.112C58.5017 121.552 57.6417 125.351 57.6417 125.351" stroke="#263238" stroke-width="0.209117" stroke-linecap="round" stroke-linejoin="round"/>
<path d="M72.0319 104.131L85.0857 96.6699" stroke="#263238" stroke-width="0.209117" stroke-linecap="round" stroke-linejoin="round"/>
<path d="M68.3881 106.216L70.4111 105.059" stroke="#263238" stroke-width="0.209117" stroke-linecap="round" stroke-linejoin="round"/>
<path d="M75.4409 105.263L87.3687 97.7649" stroke="#263238" stroke-width="0.209117" stroke-linecap="round" stroke-linejoin="round"/>
<path d="M84.2381 53.4068C83.7864 51.3157 83.9906 48.6246 83.9906 48.6246L71.8524 41.7574C71.8524 41.7574 70.8749 44.8198 69.8913 47.3934C68.9076 49.9671 67.1939 52.2994 66.8289 52.5407C66.4639 52.7882 61.5579 54.3781 61.5579 54.3781C61.5579 54.3781 61.3661 60.2616 61.0815 68.3166C62.0714 69.888 66.2226 74.9672 78.3546 74.9672C83.242 74.9672 87.0344 73.3587 89.905 71.2367C89.2678 69.3869 88.7048 67.7227 88.2841 66.3864C86.8921 62 85.5867 59.6491 84.2381 53.3945V53.4068Z" fill="white" stroke="#263238" stroke-width="0.209117" stroke-linecap="round" stroke-linejoin="round"/>
<path d="M42.5587 125.605L42.8062 120.21C42.8062 120.21 41.0925 118.373 40.3563 116.04C39.6201 113.708 34.7203 100.592 33.8603 96.5524C33.0004 92.5063 33.7366 70.8098 34.9616 65.1738C36.1865 59.5378 52.247 55.368 52.612 54.2668C52.977 53.1656 56.7818 50.2208 57.1715 49.5774C57.5613 48.9339 64.379 52.7944 64.379 52.7944L61.929 68.4837C61.929 68.4837 63.154 110.528 61.929 125.605" fill="url(#paint15_linear_7_876)"/>
<path d="M42.5587 125.605L42.8062 120.21C42.8062 120.21 41.0925 118.373 40.3563 116.04C39.6201 113.708 34.7203 100.592 33.8603 96.5524C33.0004 92.5063 33.7366 70.8098 34.9616 65.1738C36.1865 59.5378 52.247 55.368 52.612 54.2668C52.977 53.1656 56.7818 50.2208 57.1715 49.5774C57.5613 48.9339 64.379 52.7944 64.379 52.7944L61.929 68.4837C61.929 68.4837 63.154 110.528 61.929 125.605" stroke="#263238" stroke-width="0.209117" stroke-linejoin="round"/>
<path d="M55.1485 59.6183C56.225 62.1424 57.6293 65.8729 57.7654 68.4775" stroke="#263238" stroke-width="0.209117" stroke-linecap="round" stroke-linejoin="round"/>
<path d="M53.8925 56.8714C53.8925 56.8714 54.1338 57.3601 54.505 58.1644" stroke="#263238" stroke-width="0.209117" stroke-linecap="round" stroke-linejoin="round"/>
<path d="M49.5002 69.1333C49.5002 69.1333 51.9254 73.068 52.5255 78.3699" stroke="#263238" stroke-width="0.209117" stroke-linecap="round" stroke-linejoin="round"/>
<path d="M79.7651 15.2107C79.7651 15.2107 77.8287 19.4052 74.7663 21.5025C71.7039 23.5997 67.3486 25.3753 67.3486 25.3753C67.3486 25.3753 71.2214 43.5949 73.3125 45.6921C75.4097 47.7894 79.1155 50.5301 82.1841 50.6909C85.2465 50.8518 88.3893 47.0965 89.9978 44.9992C91.6125 42.902 94.2727 35.6946 94.9223 33.5973C95.5657 31.5 96.0483 23.278 96.0483 23.278C96.0483 23.278 82.9883 21.985 79.7589 15.2168L79.7651 15.2107Z" fill="white" stroke="#263238" stroke-width="0.209117" stroke-linecap="round" stroke-linejoin="round"/>
<path d="M82.5059 37.1422C82.5059 37.1422 85.0857 39.4003 85.89 38.7569C86.6943 38.1135 86.5334 33.5973 86.5334 33.5973C86.5334 33.5973 86.2488 30.4792 86.4344 29.7245C86.62 28.9697 87.2758 28.2273 87.2758 28.2273" stroke="#263238" stroke-width="0.209117" stroke-linecap="round" stroke-linejoin="round"/>
<path d="M85.692 42.0915C85.692 42.0915 81.1944 42.3699 78.2867 39.2828C78.2867 39.2828 79.5982 43.4031 81.1944 43.5949C82.7905 43.7867 85.692 42.0977 85.692 42.0977V42.0915Z" stroke="#263238" stroke-width="0.209117" stroke-linecap="round" stroke-linejoin="round"/>
<path d="M82.9822 26.6621C82.9822 26.6621 79.4558 24.4225 75.7067 26.4022" stroke="#263238" stroke-width="0.209117" stroke-linecap="round" stroke-linejoin="round"/>
<path d="M88.3151 28.1283C88.3151 28.1283 92.4354 26.5383 94.0316 28.7841" stroke="#263238" stroke-width="0.209117" stroke-linecap="round" stroke-linejoin="round"/>
<path d="M80.3962 31.3144C80.837 31.3144 81.1943 30.6635 81.1943 29.8606C81.1943 29.0576 80.837 28.4067 80.3962 28.4067C79.9555 28.4067 79.5982 29.0576 79.5982 29.8606C79.5982 30.6635 79.9555 31.3144 80.3962 31.3144Z" fill="#263238"/>
<path d="M91.7363 31.6918C91.7363 32.4961 91.3775 33.1457 90.9382 33.1457C90.499 33.1457 90.1401 32.4961 90.1401 31.6918C90.1401 30.8876 90.499 30.238 90.9382 30.238C91.3775 30.238 91.7363 30.8876 91.7363 31.6918Z" fill="#263238"/>
<path d="M81.615 31.5433C81.615 31.5433 79.9137 32.8178 78.3547 33.1024" stroke="#263238" stroke-width="0.209117" stroke-linecap="round" stroke-linejoin="round"/>
<path d="M88.8535 32.5394C88.8535 32.5394 89.4783 34.5376 91.3714 34.9645" stroke="#263238" stroke-width="0.209117" stroke-linecap="round" stroke-linejoin="round"/>
<path d="M60.9206 27.3488L68.3446 46.051L76.5852 41.6894L69.0437 23.2224L60.9206 27.3488Z" fill="url(#paint16_linear_7_876)" stroke="#263238" stroke-width="0.209117" stroke-linejoin="round"/>
<path d="M66.5134 27.4354C66.5134 27.4354 58.1862 35.8678 57.883 37.4887C57.5799 39.1158 57.1716 48.9649 57.1716 49.5712C57.1716 50.1775 61.4342 63.4849 61.4342 63.4849L57.6789 71.6079L66.2102 77.8007L68.2394 60.2307C68.2394 60.2307 69.254 58.5047 68.3384 55.2567C67.4228 52.0087 65.9009 46.7253 65.9009 46.7253L68.8457 41.7513C68.8457 41.7513 72.502 39.5179 72.9103 39.0106C73.3187 38.5033 73.3187 38.2002 72.7062 38.095C72.0999 37.996 71.4874 38.2992 71.1843 38.3981C70.8811 38.4971 66.8165 40.5325 66.8165 40.5325L64.5831 41.8503L66.9217 37.8908L71.5926 34.1356C71.5926 34.1356 72.8113 33.5293 72.6072 32.8178C72.403 32.1063 71.5926 31.9022 71.0853 32.1063C70.578 32.3105 67.2248 34.5439 67.2248 34.5439L71.0853 30.3803C71.0853 30.3803 71.0853 29.3657 70.677 29.0625C70.2686 28.7594 70.0707 28.9635 69.7613 29.1615C69.4582 29.3657 63.9707 34.3397 63.9707 34.3397C63.9707 34.3397 67.9301 28.7532 68.1343 28.2459C68.3384 27.7386 67.528 26.0125 66.5072 27.4354H66.5134Z" fill="white" stroke="#263238" stroke-width="0.209117" stroke-linecap="round" stroke-linejoin="round"/>
<path d="M67.2248 34.5439L63.6736 37.5939L61.8424 41.145" stroke="#263238" stroke-width="0.209117" stroke-linecap="round" stroke-linejoin="round"/>
<path d="M63.9768 34.3459L60.3205 37.798L59.3059 40.5387" stroke="#263238" stroke-width="0.209117" stroke-linecap="round" stroke-linejoin="round"/>
<path d="M35.5741 102.683C35.5741 102.683 41.8288 121.806 43.9075 122.419C45.9924 123.031 49.426 121.559 54.697 112.242C59.968 102.925 65.604 84.9091 65.604 84.9091L54.202 77.1882L38.1416 96.5586" fill="url(#paint17_linear_7_876)"/>
<path d="M35.5741 102.683C35.5741 102.683 41.8288 121.806 43.9075 122.419C45.9924 123.031 49.426 121.559 54.697 112.242C59.968 102.925 65.604 84.9091 65.604 84.9091L54.202 77.1882L38.1416 96.5586" stroke="#263238" stroke-width="0.209117" stroke-linejoin="round"/>
<path d="M57.7593 68.4837L70.5099 77.3058L65.7277 87.2353L52.612 77.0645L57.7593 68.4837Z" fill="white" stroke="#263238" stroke-width="0.209117" stroke-linecap="round" stroke-linejoin="round"/>
<defs>
<linearGradient id="paint0_linear_7_876" x1="196.473" y1="181.04" x2="196.473" y2="198.332" gradientUnits="userSpaceOnUse">
<stop offset="0.465" stop-color="#F772D1"/>
<stop offset="0.905" stop-color="#704192"/>
</linearGradient>
<linearGradient id="paint1_linear_7_876" x1="219.892" y1="174.652" x2="219.892" y2="177.053" gradientUnits="userSpaceOnUse">
<stop offset="0.465" stop-color="#F772D1"/>
<stop offset="0.905" stop-color="#704192"/>
</linearGradient>
<linearGradient id="paint2_linear_7_876" x1="191.024" y1="197.419" x2="191.024" y2="269.19" gradientUnits="userSpaceOnUse">
<stop offset="0.465" stop-color="#F772D1"/>
<stop offset="0.905" stop-color="#704192"/>
</linearGradient>
<linearGradient id="paint3_linear_7_876" x1="221.831" y1="195.953" x2="221.831" y2="275.309" gradientUnits="userSpaceOnUse">
<stop offset="0.465" stop-color="#F772D1"/>
<stop offset="0.905" stop-color="#704192"/>
</linearGradient>
<linearGradient id="paint4_linear_7_876" x1="212.853" y1="202.594" x2="212.853" y2="272.89" gradientUnits="userSpaceOnUse">
<stop offset="0.465" stop-color="#F772D1"/>
<stop offset="0.905" stop-color="#704192"/>
</linearGradient>
<linearGradient id="paint5_linear_7_876" x1="182.314" y1="208.648" x2="182.314" y2="261.486" gradientUnits="userSpaceOnUse">
<stop offset="0.465" stop-color="#F772D1"/>
<stop offset="0.905" stop-color="#704192"/>
</linearGradient>
<linearGradient id="paint6_linear_7_876" x1="73.4313" y1="194.481" x2="73.4313" y2="269.994" gradientUnits="userSpaceOnUse">
<stop offset="0.465" stop-color="#F772D1"/>
<stop offset="0.905" stop-color="#704192"/>
</linearGradient>
<linearGradient id="paint7_linear_7_876" x1="60.91" y1="170.181" x2="60.91" y2="202.948" gradientUnits="userSpaceOnUse">
<stop offset="0.465" stop-color="#F772D1"/>
<stop offset="0.905" stop-color="#704192"/>
</linearGradient>
<linearGradient id="paint8_linear_7_876" x1="64.4933" y1="185.46" x2="64.4933" y2="191.604" gradientUnits="userSpaceOnUse">
<stop offset="0.465" stop-color="#F772D1"/>
<stop offset="0.905" stop-color="#704192"/>
</linearGradient>
<linearGradient id="paint9_linear_7_876" x1="59.037" y1="219.74" x2="59.037" y2="272.024" gradientUnits="userSpaceOnUse">
<stop offset="0.465" stop-color="#F772D1"/>
<stop offset="0.905" stop-color="#704192"/>
</linearGradient>
<linearGradient id="paint10_linear_7_876" x1="66.4867" y1="208.571" x2="66.4867" y2="224.974" gradientUnits="userSpaceOnUse">
<stop offset="0.465" stop-color="#F772D1"/>
<stop offset="0.905" stop-color="#704192"/>
</linearGradient>
<linearGradient id="paint11_linear_7_876" x1="207.398" y1="53.877" x2="207.398" y2="127.615" gradientUnits="userSpaceOnUse">
<stop offset="0.465" stop-color="#F772D1"/>
<stop offset="0.905" stop-color="#704192"/>
</linearGradient>
<linearGradient id="paint12_linear_7_876" x1="208.176" y1="28.0232" x2="208.176" y2="50.8233" gradientUnits="userSpaceOnUse">
<stop offset="0.465" stop-color="#F772D1"/>
<stop offset="0.905" stop-color="#704192"/>
</linearGradient>
<linearGradient id="paint13_linear_7_876" x1="219.221" y1="61.6846" x2="219.221" y2="120.785" gradientUnits="userSpaceOnUse">
<stop offset="0.465" stop-color="#F772D1"/>
<stop offset="0.905" stop-color="#704192"/>
</linearGradient>
<linearGradient id="paint14_linear_7_876" x1="94.8375" y1="50.8216" x2="94.8375" y2="124.627" gradientUnits="userSpaceOnUse">
<stop offset="0.465" stop-color="#F772D1"/>
<stop offset="0.905" stop-color="#704192"/>
</linearGradient>
<linearGradient id="paint15_linear_7_876" x1="48.9332" y1="49.505" x2="48.9332" y2="125.605" gradientUnits="userSpaceOnUse">
<stop offset="0.465" stop-color="#F772D1"/>
<stop offset="0.905" stop-color="#704192"/>
</linearGradient>
<linearGradient id="paint16_linear_7_876" x1="68.7529" y1="23.2224" x2="68.7529" y2="46.051" gradientUnits="userSpaceOnUse">
<stop offset="0.465" stop-color="#F772D1"/>
<stop offset="0.905" stop-color="#704192"/>
</linearGradient>
<linearGradient id="paint17_linear_7_876" x1="50.589" y1="77.1882" x2="50.589" y2="122.539" gradientUnits="userSpaceOnUse">
<stop offset="0.465" stop-color="#F772D1"/>
<stop offset="0.905" stop-color="#704192"/>
</linearGradient>
</defs>
</svg>
