<svg width="275" height="275" viewBox="0 0 275 275" fill="none" xmlns="http://www.w3.org/2000/svg">
<path d="M5.98488 202.382C7.72046 203.157 11.969 203.059 11.969 203.059C11.969 203.059 11.059 200.221 10.9747 200.049C10.0466 198.061 7.09975 194.774 4.70127 195.124C4.30209 195.191 3.92123 195.343 3.58369 195.571C3.24616 195.799 2.95957 196.097 2.74274 196.445C2.52592 196.794 2.38376 197.186 2.32559 197.595C2.26743 198.003 2.29457 198.42 2.40524 198.818C2.82106 200.461 4.52651 201.723 5.98488 202.382Z" fill="#263238"/>
<path d="M7.46752 214.945C9.27542 215.21 13.0599 214.089 13.3613 213.997C13.9825 216.212 14.7496 218.382 15.6573 220.491C16.1816 221.722 16.742 222.953 17.3206 224.184C16.9771 223.667 16.6637 223.205 16.6095 223.15C15.1993 221.476 11.5052 219.106 9.28145 220.072C8.91636 220.243 8.59054 220.49 8.32524 220.798C8.05993 221.105 7.86109 221.467 7.74168 221.858C7.62228 222.249 7.58498 222.662 7.63223 223.069C7.67949 223.477 7.81022 223.869 8.01592 224.221C8.8355 225.754 10.8061 226.505 12.4031 226.745C14.0001 226.985 17.2723 226.092 18.1281 225.846C18.3511 226.314 18.574 226.782 18.803 227.25C19.8998 229.478 21.0026 231.7 22.0211 233.916C22.3827 234.691 22.7081 235.473 23.0335 236.255C22.7262 235.793 22.467 235.412 22.4309 235.356C21.0207 233.688 17.3266 231.312 15.1029 232.279C14.735 232.448 14.4065 232.696 14.1386 233.004C13.8708 233.313 13.6697 233.676 13.5485 234.069C13.4274 234.462 13.3889 234.877 13.4355 235.287C13.4822 235.696 13.6129 236.091 13.8193 236.446C14.6449 237.972 16.6155 238.729 18.2064 238.969C19.7974 239.21 22.7623 238.403 23.7808 238.114C24.0941 238.926 24.3834 239.733 24.6727 240.533C24.8474 241.081 25.0463 241.598 25.1909 242.164C25.3356 242.73 25.4922 243.266 25.6369 243.808C25.884 244.86 26.1491 245.95 26.3661 246.984C26.5227 247.704 26.6553 248.393 26.7939 249.089C26.4444 248.307 25.7333 246.793 25.661 246.676C24.51 244.829 21.2136 241.887 18.8693 242.497C18.4826 242.608 18.1232 242.802 17.8148 243.065C17.5064 243.328 17.2558 243.655 17.0795 244.024C16.9032 244.393 16.8051 244.796 16.7916 245.206C16.7781 245.616 16.8495 246.025 17.0012 246.405C17.6038 248.043 19.4117 249.095 20.9605 249.575C22.6599 250.111 26.4203 249.624 26.8904 249.575C27.1194 250.726 27.3242 251.847 27.493 252.905C27.8967 255.238 28.1981 257.331 28.4331 259.104H30.0301C29.7529 257.257 29.3913 255.091 28.9152 252.634C28.6922 251.465 28.4271 250.228 28.1438 248.941C29.276 248.478 30.3807 247.948 31.4523 247.353C32.6937 248.72 35.8635 250.326 36.2733 250.529C35.8455 251.613 35.4116 252.665 34.9897 253.65C34.1159 255.712 33.2783 257.54 32.543 259.092H34.2605C34.8632 257.657 35.5863 256.014 36.3095 254.216C36.7554 253.121 37.2074 251.933 37.6594 250.714C38.1114 250.812 41.8356 251.582 43.5712 251.182C45.1441 250.819 47.0484 249.914 47.7535 248.326C47.9321 247.958 48.0329 247.555 48.0492 247.145C48.0654 246.735 47.9969 246.325 47.8479 245.944C47.6989 245.562 47.4729 245.217 47.1846 244.931C46.8963 244.644 46.5521 244.423 46.1746 244.282C43.8846 243.494 40.3833 246.128 39.0997 247.932C39.0274 248.036 38.3283 249.267 37.8944 250.049C38.0752 249.551 38.262 249.064 38.4428 248.547C38.8104 247.532 39.1419 246.504 39.5095 245.402C39.6661 244.86 39.8289 244.312 39.9855 243.765C40.1422 243.217 40.2748 242.626 40.4194 242.053C40.7328 240.718 40.9799 239.345 41.2089 237.96C42.0827 238.28 45.2043 239.394 46.8194 239.277C48.4344 239.16 50.4352 238.557 51.3753 237.092C51.6064 236.757 51.7656 236.375 51.8427 235.973C51.9197 235.57 51.9128 235.156 51.8224 234.756C51.732 234.356 51.5601 233.981 51.3179 233.654C51.0758 233.326 50.7688 233.055 50.4171 232.857C48.2657 231.725 44.3908 233.811 42.8782 235.369C42.7878 235.467 41.8115 236.71 41.2872 237.4C41.4138 236.569 41.5464 235.732 41.6488 234.882C41.9501 232.42 42.1731 229.958 42.4141 227.465C42.4865 226.702 42.5648 225.951 42.6432 225.187C42.9505 225.311 46.6326 226.708 48.4465 226.579C50.0555 226.462 52.0623 225.858 53.0024 224.4C53.2336 224.064 53.3929 223.682 53.47 223.279C53.5471 222.876 53.5402 222.461 53.4498 222.061C53.3594 221.661 53.1875 221.284 52.9454 220.957C52.7032 220.629 52.3961 220.357 52.0442 220.159C49.8928 219.026 46.0179 221.113 44.5113 222.67C44.3908 222.787 42.9927 224.578 42.6552 225.052C42.83 223.384 43.0168 221.722 43.2578 220.091C43.5862 217.887 44.0532 215.708 44.6559 213.566C44.8006 213.621 48.6333 215.099 50.4894 214.969C52.0984 214.853 54.1052 214.249 55.0513 212.784C55.2813 212.448 55.4394 212.066 55.5155 211.664C55.5916 211.261 55.5839 210.847 55.4929 210.447C55.402 210.048 55.2299 209.673 54.9877 209.346C54.7455 209.019 54.4387 208.747 54.0871 208.549C51.9357 207.417 48.0608 209.503 46.5542 211.061C46.4337 211.184 44.9271 213.111 44.674 213.48C44.7102 213.357 44.7343 213.221 44.7765 213.098C45.4401 210.975 46.285 208.915 47.3015 206.943C47.8559 205.841 48.4405 204.825 49.031 203.865C49.718 204.216 52.8758 205.779 54.5572 205.847C56.2385 205.915 58.2393 205.539 59.324 204.191C59.5874 203.883 59.7846 203.522 59.9029 203.132C60.0212 202.741 60.058 202.33 60.0108 201.923C59.9637 201.517 59.8337 201.126 59.6292 200.774C59.4248 200.423 59.1504 200.119 58.8238 199.883C56.805 198.516 52.7553 200.16 51.0619 201.532C50.9715 201.612 50.1218 202.474 49.5071 203.114C49.7843 202.677 50.0555 202.222 50.3267 201.809C51.3391 200.252 52.3576 198.892 53.2736 197.691C53.7979 197.014 54.286 196.411 54.75 195.845C55.5997 195.845 59.0227 195.728 60.5172 195.007C62.0117 194.287 63.6449 193.001 64.0004 191.314C64.0972 190.914 64.1101 190.498 64.0384 190.093C63.9667 189.688 63.812 189.302 63.5845 188.962C63.3569 188.623 63.0616 188.336 62.7178 188.12C62.3741 187.905 61.9897 187.766 61.5899 187.713C59.1794 187.449 56.3229 190.791 55.4491 192.828C55.3707 193.007 54.4909 195.869 54.5331 195.869H54.5873C54.1293 196.392 53.6472 196.965 53.135 197.605C52.1949 198.781 51.1403 200.123 50.0917 201.668C48.9424 203.311 47.8899 205.024 46.9399 206.795C45.8628 208.775 44.9613 210.849 44.2462 212.994C44.2436 213.018 44.2436 213.043 44.2462 213.067C44.2462 212.347 44.2462 210.322 44.21 210.168C43.9509 207.885 42.143 203.822 39.7626 203.379C39.3658 203.315 38.9605 203.338 38.5728 203.445C38.1851 203.552 37.8238 203.741 37.5123 204C37.2009 204.259 36.9462 204.582 36.7649 204.948C36.5837 205.314 36.4798 205.714 36.4601 206.124C36.3215 207.866 37.5569 209.602 38.7562 210.704C40.1181 211.935 43.8846 213.166 44.1799 213.234C43.5063 215.432 42.9748 217.673 42.5889 219.943C42.3599 221.266 42.1671 222.602 41.9863 223.95C41.9863 223.335 41.9863 222.762 41.9863 222.688C41.703 220.497 39.9132 216.441 37.5328 215.991C37.1361 215.928 36.7307 215.95 36.343 216.057C35.9553 216.164 35.594 216.353 35.2826 216.612C34.9711 216.871 34.7165 217.194 34.5352 217.56C34.3539 217.926 34.2501 218.327 34.2304 218.737C34.0918 220.479 35.3272 222.214 36.5264 223.316C37.7257 224.418 40.9377 225.514 41.7874 225.778C41.7271 226.295 41.6609 226.813 41.6006 227.33C41.3053 229.792 40.998 232.285 40.6846 234.716C40.558 235.566 40.4074 236.403 40.2628 237.24C40.2628 236.686 40.2628 236.212 40.2628 236.144C39.9855 233.953 38.1897 229.896 35.8153 229.447C35.418 229.382 35.0118 229.404 34.6233 229.511C34.2348 229.618 33.8728 229.808 33.561 230.068C33.2492 230.327 32.9947 230.651 32.8141 231.019C32.6335 231.386 32.5308 231.788 32.5129 232.199C32.3683 233.934 33.6037 235.676 34.8089 236.772C36.0142 237.868 38.9129 238.865 39.9193 239.197C39.7385 240.053 39.5637 240.902 39.3588 241.721C39.2021 242.275 39.0876 242.823 38.9068 243.371C38.726 243.918 38.5573 244.46 38.3886 244.996C38.027 246.011 37.6594 247.07 37.2797 248.073C36.9664 248.757 36.7193 249.372 36.4481 250.049C36.5807 249.2 36.8036 247.538 36.8036 247.396C36.7818 245.45 36.2692 243.542 35.3151 241.856C35.3221 241.64 35.308 241.424 35.273 241.21C35.2214 240.805 35.0869 240.415 34.8783 240.066C34.6697 239.717 34.3916 239.416 34.062 239.184C33.7324 238.952 33.3588 238.793 32.9652 238.718C32.5717 238.643 32.1671 238.653 31.7777 238.748C29.4395 239.363 27.957 243.574 27.8425 245.777C27.8425 245.907 27.9209 247.322 27.9871 248.24C27.8726 247.722 27.7642 247.218 27.6376 246.682C27.3905 245.63 27.1133 244.583 26.8241 243.457C26.6614 242.915 26.5047 242.373 26.342 241.819C26.1792 241.265 25.9623 240.711 25.7755 240.151C25.3115 238.859 24.7811 237.572 24.2207 236.292C25.1246 236.07 28.3246 235.239 29.6142 234.23C30.9039 233.22 32.2477 231.583 32.2357 229.841C32.2463 229.431 32.1723 229.023 32.0185 228.644C31.8646 228.265 31.6344 227.923 31.3429 227.641C31.0513 227.359 30.7048 227.143 30.326 227.006C29.9472 226.87 29.5446 226.816 29.1442 226.849C26.7337 227.114 24.6546 231.029 24.2207 233.19C24.1906 233.325 24.0459 234.907 23.9857 235.781C23.6422 235.012 23.3047 234.248 22.9311 233.479C21.8584 231.269 20.7013 229.065 19.5563 226.862C19.2068 226.185 18.8693 225.508 18.5198 224.837C18.8452 224.757 22.6719 223.852 24.1122 222.725C25.3898 221.722 26.7517 220.078 26.7397 218.336C26.7512 217.926 26.6779 217.518 26.5244 217.138C26.3709 216.759 26.1407 216.417 25.8489 216.135C25.5571 215.852 25.2103 215.636 24.8311 215.5C24.4518 215.364 24.0488 215.311 23.6482 215.345C21.2377 215.61 19.1526 219.518 18.7187 221.679C18.6825 221.845 18.4836 224.141 18.4595 224.707C17.7002 223.224 16.959 221.728 16.2901 220.232C15.3724 218.21 14.5833 216.129 13.9277 214.003C14.0784 213.966 18.0738 213.037 19.5503 211.886C20.8339 210.882 22.1898 209.239 22.1778 207.497C22.1893 207.086 22.116 206.678 21.9625 206.299C21.809 205.919 21.5788 205.577 21.287 205.295C20.9952 205.012 20.6484 204.796 20.2691 204.66C19.8899 204.524 19.4868 204.471 19.0863 204.505C16.6757 204.77 14.5906 208.685 14.1567 210.845C14.1206 211.012 13.9097 213.468 13.8976 213.923C13.8614 213.8 13.8072 213.677 13.7711 213.554C13.1828 211.4 12.7795 209.199 12.5658 206.974C12.4332 205.742 12.3729 204.567 12.3368 203.422C13.0961 203.323 16.5552 202.849 18.0136 201.963C19.472 201.077 20.9243 199.63 21.0991 197.894C21.1533 197.488 21.1232 197.074 21.0108 196.679C20.8984 196.285 20.7061 195.92 20.4464 195.606C20.1867 195.293 19.8655 195.039 19.5035 194.86C19.1415 194.682 18.7468 194.583 18.345 194.57C15.9345 194.57 13.4336 198.221 12.7647 200.32C12.7285 200.437 12.4874 201.637 12.3247 202.517C12.3247 201.994 12.3247 201.458 12.3247 200.96C12.3247 199.113 12.4453 197.383 12.5598 195.869C12.6321 195.007 12.7104 194.232 12.7948 193.506C13.4938 193.013 16.2901 191 17.1518 189.554C18.0136 188.107 18.6403 186.088 18.0377 184.463C17.9033 184.077 17.6907 183.724 17.4138 183.427C17.1369 183.13 16.8019 182.897 16.4307 182.741C16.0594 182.585 15.6602 182.511 15.259 182.524C14.8579 182.536 14.4638 182.635 14.1025 182.814C11.9511 183.946 11.3846 188.353 11.7402 190.539C11.7402 190.729 12.5839 193.616 12.62 193.586H12.6622C12.5658 194.281 12.4754 195.026 12.391 195.845C12.2404 197.359 12.0897 199.076 12.0475 200.947C11.9792 202.969 12.0255 204.994 12.1861 207.011C12.3502 209.259 12.7092 211.487 13.2588 213.671C13.2588 213.671 13.2588 213.72 13.2588 213.745C12.8792 213.129 11.7583 211.467 11.6558 211.344C10.2457 209.676 6.55152 207.3 4.32781 208.266C3.96219 208.44 3.63643 208.69 3.37177 209C3.1071 209.311 2.90948 209.675 2.79178 210.068C2.67408 210.462 2.63895 210.877 2.68867 211.285C2.7384 211.694 2.87186 212.087 3.08036 212.44C3.90597 213.948 5.87055 214.705 7.46752 214.945Z" fill="#263238"/>
<path d="M48.9468 203.336C48.983 203.336 49.7182 200.455 49.7423 200.258C50.0436 198.073 49.3627 193.672 47.1811 192.601C46.8149 192.432 46.4179 192.344 46.0161 192.342C45.6143 192.341 45.2167 192.426 44.8493 192.592C44.4819 192.758 44.153 193.002 43.8839 193.306C43.6149 193.611 43.4119 193.971 43.2881 194.361C42.6855 195.998 43.4448 198.011 44.3186 199.396C45.3491 201.021 48.9408 203.336 48.9468 203.336Z" fill="#263238"/>
<path opacity="0.2" d="M27.5534 130.726C25.4687 130.73 23.4367 131.395 21.7381 132.63C20.0394 133.864 18.7579 135.606 18.0706 137.617C17.3832 139.627 17.324 141.805 17.9011 143.852C18.4781 145.898 19.663 147.71 21.292 149.039L18.6404 153.846C18.2208 153.85 17.8094 153.965 17.4468 154.181C17.0843 154.397 16.7832 154.706 16.5734 155.077L9.34182 167.887C9.16741 168.167 9.0503 168.48 8.99754 168.808C8.94477 169.136 8.95744 169.471 9.03479 169.793C9.11214 170.116 9.25256 170.419 9.44761 170.685C9.64266 170.95 9.8883 171.173 10.1698 171.339C10.4512 171.505 10.7627 171.612 11.0854 171.652C11.4082 171.692 11.7355 171.665 12.0477 171.572C12.36 171.48 12.6506 171.324 12.9023 171.113C13.1539 170.903 13.3613 170.643 13.512 170.349L20.7436 157.539C20.9552 157.165 21.0666 156.741 21.0666 156.308C21.0666 155.876 20.9552 155.452 20.7436 155.077L23.3651 150.362C24.6857 150.993 26.1256 151.321 27.5835 151.322C28.927 151.356 30.2636 151.115 31.5144 150.613C32.7653 150.111 33.9052 149.358 34.8671 148.4C35.8289 147.441 36.5933 146.295 37.1152 145.03C37.637 143.765 37.9059 142.406 37.9059 141.034C37.9059 139.661 37.637 138.302 37.1152 137.037C36.5933 135.772 35.8289 134.626 34.8671 133.668C33.9052 132.709 32.7653 131.957 31.5144 131.455C30.2636 130.953 28.927 130.711 27.5835 130.745L27.5534 130.726ZM27.5534 149.457C25.9171 149.457 24.3176 148.961 22.9574 148.032C21.5971 147.103 20.5374 145.783 19.9123 144.238C19.2873 142.694 19.1249 140.994 19.4459 139.355C19.7669 137.717 20.5568 136.212 21.7155 135.032C22.8742 133.852 24.3497 133.049 25.9552 132.726C27.5606 132.403 29.2238 132.574 30.7342 133.217C32.2445 133.86 33.5342 134.946 34.4398 136.338C35.3454 137.73 35.8262 139.365 35.8215 141.037C35.8135 143.272 34.9391 145.413 33.3895 146.991C31.84 148.569 29.7415 149.456 27.5534 149.457Z" fill="black"/>
<path opacity="0.2" d="M216.569 21.917C216.058 23.9854 216.189 26.1651 216.945 28.1539C217.7 30.1427 219.043 31.8421 220.787 33.0164C222.531 34.1907 224.589 34.7818 226.676 34.7077C228.764 34.6336 230.777 33.8979 232.436 32.6028L236.329 36.3945C236.23 36.81 236.238 37.2448 236.354 37.656C236.469 38.0673 236.687 38.4408 236.986 38.7397L247.376 49.0501C247.603 49.2758 247.871 49.4536 248.165 49.5733C248.46 49.693 248.774 49.7522 249.091 49.7477C249.408 49.7431 249.721 49.6748 250.012 49.5466C250.303 49.4185 250.566 49.233 250.787 49.0008C251.077 48.6875 251.284 48.3042 251.389 47.8867C251.492 47.467 251.485 47.027 251.369 46.611C251.253 46.1949 251.031 45.8175 250.726 45.5169L240.343 35.2188C240.04 34.9142 239.664 34.6968 239.252 34.5887C238.84 34.4806 238.408 34.4856 237.999 34.6033L234.166 30.8546C235.109 29.6579 235.778 28.2604 236.123 26.7649C236.468 25.2694 236.48 23.7139 236.159 22.213C235.838 20.712 235.191 19.3036 234.267 18.0914C233.343 16.8793 232.164 15.8942 230.818 15.2086C229.472 14.523 227.992 14.1543 226.488 14.1297C224.984 14.1051 223.494 14.4252 222.127 15.0664C220.76 15.7076 219.551 16.6536 218.589 17.8349C217.628 19.0161 216.937 20.4026 216.569 21.8923V21.917ZM234.347 26.4904C233.948 28.1093 233.088 29.5708 231.875 30.6903C230.663 31.8098 229.153 32.5369 227.536 32.7797C225.919 33.0224 224.268 32.7699 222.792 32.054C221.315 31.3382 220.08 30.1912 219.242 28.7581C218.404 27.325 218 25.6702 218.083 24.003C218.166 22.3358 218.731 20.7312 219.707 19.392C220.682 18.0528 222.025 17.0393 223.565 16.4796C225.104 15.92 226.772 15.8393 228.357 16.2478C230.479 16.7982 232.301 18.1853 233.423 20.1051C234.546 22.0249 234.878 24.321 234.347 26.4904Z" fill="black"/>
<g opacity="0.2">
<path d="M236.872 143.359C242.665 142.427 246.62 136.874 245.707 130.957C244.794 125.04 239.357 121 233.564 121.932C227.772 122.865 223.816 128.418 224.729 134.335C225.643 140.252 231.079 144.292 236.872 143.359Z" stroke="black" stroke-width="0.436109" stroke-linecap="round" stroke-linejoin="round"/>
<path d="M238.673 142.059L240.372 140.674L240.204 139.806L239.691 138.248L238.673 137.017L234.937 135.786C234.415 135.985 233.905 136.217 233.412 136.482C232.394 136.999 232.394 136.654 231.713 136.654C231.174 136.597 230.653 136.42 230.188 136.137L228.983 134.056L229.826 131.97L230.845 130.739L231.188 128.831L232.544 125.193L232.882 122.73C232.851 122.48 232.739 122.248 232.562 122.072C230.896 122.51 229.359 123.355 228.084 124.535C226.808 125.714 225.832 127.193 225.24 128.843C225.16 129.233 225.106 129.627 225.078 130.025L225.246 131.927L225.945 133.035L227.307 134.266L228.157 135.497L229.682 137.922L231.369 138.575L232.574 140.132V143.117C232.773 143.173 232.966 143.228 233.177 143.265C233.869 143.268 234.559 143.338 235.238 143.474C235.407 143.474 235.569 143.474 235.732 143.474C236.762 143.119 237.749 142.644 238.673 142.059Z" stroke="black" stroke-width="0.436109" stroke-linecap="round" stroke-linejoin="round"/>
<path d="M239.493 122.724L239.203 123.186L238.691 125.094C238.691 125.094 237.486 126.824 238.185 127.864C238.792 128.64 239.541 129.289 240.391 129.772H241.915L243.277 129.255C243.277 129.255 243.783 129.083 243.783 130.295C243.783 131.508 244.989 133.416 244.989 133.416L245.591 135.011C246.125 132.563 245.809 130.002 244.699 127.766C243.589 125.529 241.753 123.756 239.505 122.749L239.493 122.724Z" stroke="black" stroke-width="0.436109" stroke-linecap="round" stroke-linejoin="round"/>
</g>
<g opacity="0.2">
<path d="M49.2784 49.0439C55.1428 49.0439 59.8968 44.1881 59.8968 38.1981C59.8968 32.2081 55.1428 27.3522 49.2784 27.3522C43.414 27.3522 38.66 32.2081 38.66 38.1981C38.66 44.1881 43.414 49.0439 49.2784 49.0439Z" stroke="black" stroke-width="0.436109" stroke-linecap="round" stroke-linejoin="round"/>
<path d="M52.7372 47.6097L54.4306 46.2248L54.2619 45.3568L53.7556 43.7934L52.7372 42.5623L49.0009 41.3312C48.4764 41.5287 47.965 41.7611 47.4702 42.0268C46.4517 42.5438 46.4517 42.1991 45.7768 42.1991C45.2351 42.1417 44.7125 41.9631 44.2461 41.6759L43.0408 39.5954L43.8906 37.5148L44.909 36.2838L45.2465 34.3756L46.6084 30.7377L46.9459 28.2755C46.912 28.0252 46.7975 27.7935 46.6205 27.6169C44.9543 28.0552 43.4173 28.9004 42.1418 30.0799C40.8663 31.2594 39.8906 32.7378 39.2985 34.3879C39.2132 34.8018 39.1568 35.2215 39.1298 35.6436L39.2985 37.5518L39.9795 38.592L41.3354 39.8231L42.1851 41.0542L43.7158 43.4794L45.4092 44.175L46.6144 45.7323V48.7054C46.8073 48.7546 47.0001 48.81 47.2171 48.8531C47.909 48.8563 48.5991 48.9263 49.2781 49.0624C49.4408 49.0624 49.6035 49.0624 49.7722 49.0624C50.8123 48.6972 51.8073 48.2097 52.7372 47.6097Z" stroke="black" stroke-width="0.436109" stroke-linecap="round" stroke-linejoin="round"/>
<path d="M53.5508 28.2755L53.2434 28.7125L52.7372 30.6146C52.7372 30.6146 51.532 32.3504 52.225 33.3907C52.8334 34.1655 53.5822 34.8134 54.4306 35.2989H55.9613L57.3172 34.7756C57.3172 34.7756 57.8295 34.6033 57.8295 35.8159C57.8295 37.0285 59.0347 38.9429 59.0347 38.9429L59.6374 40.531C60.1788 38.0839 59.867 35.5205 58.7558 33.2831C57.6447 31.0457 55.8038 29.2747 53.5508 28.2755Z" stroke="black" stroke-width="0.436109" stroke-linecap="round" stroke-linejoin="round"/>
</g>
<g opacity="0.2">
<path d="M64.3594 172.38C72.3972 170.347 77.2994 162.043 75.3088 153.833C73.3181 145.623 65.1884 140.616 57.1506 142.649C49.1128 144.682 44.2105 152.986 46.2012 161.196C48.1919 169.406 56.3216 174.414 64.3594 172.38Z" stroke="black" stroke-width="0.436109" stroke-linecap="round" stroke-linejoin="round"/>
<path d="M65.646 170.81L68.0565 168.853L67.8155 167.622L67.0984 165.418L65.646 163.707L60.373 161.996C59.6351 162.277 58.9146 162.604 58.2156 162.975C56.7753 163.707 56.7753 163.221 55.805 163.221C55.0422 163.14 54.3058 162.89 53.6476 162.488L51.9723 159.546L53.1776 156.61L54.6118 154.899L55.0939 152.203L57.0103 147.063L57.4924 143.634C57.4436 143.282 57.2827 142.955 57.0344 142.705C54.6825 143.321 52.5125 144.513 50.7111 146.176C48.9097 147.839 47.5308 149.924 46.6932 152.252C46.5823 152.8 46.5059 153.355 46.4642 153.914L46.7053 156.61L47.6635 158.081L49.5798 159.792L50.7851 161.504L52.9425 164.932L55.3531 165.911L57.0284 168.114V172.331C57.3056 172.405 57.5828 172.479 57.866 172.54C58.843 172.543 59.8175 172.64 60.7767 172.829C61.0118 172.829 61.2408 172.829 61.4758 172.829C62.9583 172.46 65.646 170.81 65.646 170.81Z" stroke="black" stroke-width="0.436109" stroke-linecap="round" stroke-linejoin="round"/>
<path d="M66.7847 143.499L66.3508 144.114L65.6458 146.817C65.6458 146.817 63.9704 149.279 64.9286 150.732C65.8868 152.184 68.0442 153.428 68.0442 153.428H70.2016L72.118 152.695C72.118 152.695 72.8351 152.449 72.8351 154.16C72.8351 155.871 74.5165 158.567 74.5165 158.567L75.3963 160.814C76.1491 157.356 75.7018 153.738 74.1308 150.579C72.5599 147.42 69.963 144.918 66.7847 143.499Z" stroke="black" stroke-width="0.436109" stroke-linecap="round" stroke-linejoin="round"/>
</g>
<g opacity="0.2">
<path d="M55.4793 185.239V189.751H54.3885V179.73H55.4793V184.235H57.8898V179.73H58.9806V189.751H57.8898V185.239H55.4793Z" fill="black"/>
<path d="M61.5177 189.751V180.745H59.7098V179.73H64.4043V180.745H62.5964V189.751H61.5177Z" fill="black"/>
<path d="M66.5618 189.751V180.745H64.7539V179.73H69.4484V180.745H67.6405V189.751H66.5618Z" fill="black"/>
<path d="M72.329 179.73C73.8717 179.73 74.5286 180.659 74.5286 182.192V183.423C74.5286 185.011 73.7994 185.842 72.2446 185.842H71.2804V189.794H70.1896V179.73H72.329ZM72.2446 184.796C73.0581 184.796 73.4498 184.408 73.4498 183.454V182.118C73.4498 181.207 73.1305 180.745 72.329 180.745H71.2804V184.796H72.2446Z" fill="black"/>
<path d="M76.4329 182.894V184.285H75.3843V182.894H76.4329ZM76.4329 188.347V189.738H75.3843V188.347H76.4329Z" fill="black"/>
<path d="M82.0372 179.73L78.1743 189.751H77.2222L81.0851 179.73H82.0372Z" fill="black"/>
<path d="M84.7853 179.73L80.9164 189.751H79.9642L83.8331 179.73H84.7853Z" fill="black"/>
<path d="M88.172 189.751H86.6774L85.3275 179.73H86.3942L87.5452 188.261L88.636 179.742H89.7147L90.7934 188.273L91.9023 179.73H92.8544L91.5226 189.751H90.0823L89.1482 182.949L88.172 189.751Z" fill="black"/>
<path d="M96.3439 189.751H94.8433L93.4995 179.73H94.5721L95.7232 188.261L96.8139 179.742H97.8926L98.9714 188.273L100.08 179.73H101.032L99.7005 189.751H98.2482L97.3081 182.949L96.3439 189.751Z" fill="black"/>
<path d="M104.509 189.751H103.009L101.665 179.73H102.732L103.877 188.261L104.967 179.742H106.052L107.125 188.273L108.234 179.73H109.186L107.83 189.751H106.39L105.45 182.949L104.509 189.751Z" fill="black"/>
<path d="M110.56 188.36V189.751H109.511V188.36H110.56Z" fill="black"/>
<path d="M112.729 188.36V189.751H111.681V188.36H112.729Z" fill="black"/>
<path d="M114.905 188.36V189.751H113.856V188.36H114.905Z" fill="black"/>
</g>
<g opacity="0.2">
<path d="M215.574 58.6956V63.2014H214.496V53.1865H215.586V57.6923H217.997V53.1865H219.094V63.2014H217.997V58.6956H215.574Z" fill="black"/>
<path d="M221.613 63.2014V54.2022H219.805V53.1865H224.5V54.2022H222.692V63.2014H221.613Z" fill="black"/>
<path d="M226.657 63.2014V54.2022H224.849V53.1865H229.562V54.2022H227.754V63.2014H226.657Z" fill="black"/>
<path d="M232.43 53.1865C233.967 53.1865 234.63 54.116 234.63 55.6487V56.8798C234.63 58.4679 233.901 59.2989 232.346 59.2989H231.37V63.2445H230.285V53.1865H232.43ZM232.346 58.2524C233.159 58.2524 233.551 57.8646 233.551 56.9044V55.5748C233.551 54.6577 233.226 54.2022 232.43 54.2022H231.37V58.2524H232.346Z" fill="black"/>
<path d="M236.534 56.3627V57.7538H235.479V56.3627H236.534ZM236.534 61.8164V63.2014H235.479V61.8164H236.534Z" fill="black"/>
<path d="M242.138 53.1865L238.27 63.2014H237.317L241.18 53.1865H242.138Z" fill="black"/>
<path d="M244.881 53.1865L241.012 63.2014H240.053L243.922 53.1865H244.881Z" fill="black"/>
<path d="M248.273 63.2014H246.773L245.429 53.1865H246.489L247.64 61.7179L248.731 53.1988H249.81L250.889 61.7303L251.997 53.1865H252.95L251.618 63.2014H250.177L249.237 56.4304L248.273 63.2014Z" fill="black"/>
<path d="M256.439 63.2014H254.938L253.595 53.1865H254.661L255.806 61.7179L256.903 53.1988H257.982L259.091 61.7303L260.193 53.1865H261.146L259.814 63.2014H258.374L257.433 56.4304L256.439 63.2014Z" fill="black"/>
<path d="M264.604 63.2014H263.104L261.76 53.1865H262.827L263.972 61.7179L265.068 53.1988H266.147L267.226 61.7303L268.329 53.1865H269.287L267.955 63.2014H266.509L265.568 56.4304L264.604 63.2014Z" fill="black"/>
<path d="M270.655 61.8164V63.2014H269.606V61.8164H270.655Z" fill="black"/>
<path d="M272.824 61.8164V63.2014H271.776V61.8164H272.824Z" fill="black"/>
<path d="M275 61.8164V63.2014H273.945V61.8164H275Z" fill="black"/>
</g>
<g opacity="0.2">
<path d="M23.3352 14.9921V19.4979H22.2565V9.483H23.3472V13.9888H25.7578V9.483H26.8546V19.4979H25.7457V14.9921H23.3352Z" fill="black"/>
<path d="M29.3732 19.4979V10.4986H27.5653V9.483H32.2598V10.4986H30.4519V19.4979H29.3732Z" fill="black"/>
<path d="M34.4172 19.4979V10.4986H32.6093V9.483H37.3219V10.4986H35.514V19.4979H34.4172Z" fill="black"/>
<path d="M40.1904 9.483C41.7272 9.483 42.3901 10.4125 42.3901 11.9452V13.1763C42.3901 14.7644 41.6609 15.5953 40.1061 15.5953H39.1298V19.541H38.0451V9.483H40.1904ZM40.1061 14.5489C40.9196 14.5489 41.3113 14.1611 41.3113 13.2009V11.8713C41.3113 10.9541 40.9859 10.4986 40.1904 10.4986H39.1298V14.5489H40.1061Z" fill="black"/>
<path d="M44.2946 12.6592V14.0503H43.24V12.6592H44.2946ZM44.2946 18.1129V19.4979H43.24V18.1129H44.2946Z" fill="black"/>
<path d="M49.899 9.483L46.0301 19.4979H45.0779L48.9408 9.483H49.899Z" fill="black"/>
<path d="M52.6408 9.483L48.7719 19.4979H47.8138L51.6826 9.483H52.6408Z" fill="black"/>
<path d="M56.0338 19.4979H54.5332L53.1893 9.483H54.25L55.401 18.0144L56.4918 9.49531H57.5705L58.6492 18.0267L59.758 9.483H60.7102L59.3784 19.4979H57.9381L56.998 12.7269L56.0338 19.4979Z" fill="black"/>
<path d="M64.1993 19.4979H62.6988L61.3549 9.483H62.4216L63.5666 18.0144L64.6634 9.49531H65.7421L66.8509 18.0267L67.9537 9.483H68.9059L67.5741 19.4979H66.1338L65.1937 12.7269L64.1993 19.4979Z" fill="black"/>
<path d="M72.3652 19.4979H70.8646L69.5208 9.483H70.5874L71.7324 18.0144L72.8292 9.49531H73.9079L74.9866 18.0267L76.0894 9.483H77.0416L75.7158 19.4979H74.2695L73.3294 12.7269L72.3652 19.4979Z" fill="black"/>
<path d="M78.4154 18.1129V19.4979H77.3668V18.1129H78.4154Z" fill="black"/>
<path d="M80.5851 18.1129V19.4979H79.5365V18.1129H80.5851Z" fill="black"/>
<path d="M82.7605 18.1129V19.4979H81.7059V18.1129H82.7605Z" fill="black"/>
</g>
<path d="M133.502 4.09085C90.1122 4.09085 54.8462 40.1308 54.8462 84.4376C54.8701 105.738 63.1647 126.158 77.9103 141.22C92.6559 156.281 112.648 164.754 133.502 164.778C176.891 164.778 212.163 128.738 212.163 84.4376C212.163 40.137 176.873 4.09085 133.502 4.09085ZM207.909 82.2647H173.559C173.378 68.3042 171.455 54.9408 167.99 43.2332C174.594 39.9529 180.714 35.7426 186.172 30.7254C199.611 44.4361 207.391 62.889 207.909 82.2832V82.2647ZM133.502 160.439C124.203 160.439 115.332 152.732 108.535 138.735C106.854 135.236 105.398 131.63 104.178 127.938C113.449 123.897 123.425 121.814 133.505 121.814C143.585 121.814 153.561 123.897 162.832 127.938C161.605 131.641 160.141 135.258 158.451 138.765C151.671 152.763 142.782 160.469 133.502 160.469V160.439ZM133.502 117.505C122.983 117.493 112.568 119.639 102.876 123.814C99.6338 112.642 97.8319 99.8939 97.6572 86.5612H169.37C169.196 99.8939 167.394 112.642 164.146 123.814C154.446 119.646 144.025 117.511 133.502 117.535V117.505ZM97.6572 82.2524C97.8319 68.9259 99.6278 56.1903 102.87 45.0244C112.563 49.2068 122.98 51.3566 133.502 51.346C144.026 51.3566 154.445 49.2068 164.14 45.0244C167.376 56.1903 169.178 68.9259 169.352 82.2524H97.6572ZM133.502 8.38734C142.782 8.39965 151.671 16.0816 158.451 30.1037C160.139 33.6115 161.6 37.2283 162.826 40.9311C153.556 44.996 143.572 47.0904 133.484 47.0865C123.397 47.0904 113.416 44.996 104.148 40.9311C105.371 37.2285 106.831 33.6116 108.517 30.1037C115.332 16.0816 124.203 8.39965 133.502 8.39965V8.38734ZM183.068 27.7769C178.124 32.2891 172.614 36.1083 166.683 39.1337C165.434 35.3988 163.952 31.7494 162.247 28.2078C158.384 20.2427 153.81 14.1242 148.803 10.037C161.55 12.7787 173.367 18.8967 183.068 27.7769ZM104.726 28.2078C103.024 31.7506 101.542 35.3998 100.291 39.1337C94.3717 36.1059 88.8736 32.2867 83.9413 27.7769C93.6425 18.8967 105.46 12.7787 118.207 10.037C113.193 14.1057 108.625 20.2242 104.756 28.1893L104.726 28.2078ZM80.8317 30.7438C86.2752 35.7646 92.3811 39.9811 98.9709 43.2701C95.5118 54.9654 93.5894 68.3412 93.4086 82.3017H59.0586C59.5903 62.8916 67.3946 44.4303 80.8618 30.7254L80.8317 30.7438ZM59.0646 86.6105H93.4146C93.5954 100.577 95.5178 113.953 98.989 125.667C92.4027 128.954 86.2991 133.166 80.8558 138.181C67.4007 124.466 59.6115 106 59.0947 86.592L59.0646 86.6105ZM83.9292 141.147C88.8692 136.641 94.3756 132.828 100.303 129.809C101.553 133.53 103.03 137.167 104.726 140.698C108.595 148.663 113.163 154.788 118.177 158.869C105.446 156.119 93.6468 150.002 83.9593 141.129L83.9292 141.147ZM162.217 140.698C163.918 137.168 165.397 133.531 166.646 129.809C172.573 132.83 178.079 136.643 183.02 141.147C173.329 150.005 161.533 156.109 148.809 158.85C153.816 154.769 158.384 148.645 162.247 140.68L162.217 140.698ZM186.099 138.181C180.667 133.162 174.573 128.943 167.996 125.648C171.462 113.953 173.42 100.559 173.571 86.592H207.921C207.389 105.998 199.589 124.456 186.13 138.162L186.099 138.181Z" fill="#263238"/>
<path opacity="0.2" d="M240.788 75.0875H85.3816V101.377H240.788V75.0875Z" fill="black"/>
<path opacity="0.2" d="M75.0464 75.0875H29.2163C26.7833 75.0875 24.811 77.1021 24.811 79.5871V96.8777C24.811 99.3628 26.7833 101.377 29.2163 101.377H75.0464C77.4794 101.377 79.4517 99.3628 79.4517 96.8777V79.5871C79.4517 77.1021 77.4794 75.0875 75.0464 75.0875Z" fill="black"/>
<path d="M242.597 70.7787H87.1898V97.0685H242.597V70.7787Z" fill="white" stroke="#263238" stroke-width="0.436109" stroke-linecap="round" stroke-linejoin="round"/>
<path d="M111.602 85.1147V91.2701H110.108V77.5558H111.602V83.7113H114.911V77.5558H116.411V91.3009H114.911V85.1455L111.602 85.1147Z" fill="#263238"/>
<path d="M119.882 91.3009V78.9531H117.411V77.5558H123.854V78.9531H121.371V91.3009H119.882Z" fill="#263238"/>
<path d="M126.813 91.3009V78.9531H124.33V77.5558H130.772V78.9531H128.319V91.3009H126.813Z" fill="#263238"/>
<path d="M134.731 77.5558C136.846 77.5558 137.744 78.83 137.744 80.9167V82.5602C137.744 84.7392 136.744 85.878 134.611 85.878H133.285V91.2947H131.784V77.5558H134.731ZM134.617 84.5053C135.731 84.5053 136.268 83.9759 136.268 82.6587V80.8121C136.268 79.581 135.828 78.9285 134.731 78.9285H133.291V84.4684L134.617 84.5053Z" fill="#263238"/>
<path d="M140.372 81.9447V83.8528H138.926V81.9447H140.372ZM140.372 89.4297V91.3317H138.926V89.4297H140.372Z" fill="#263238"/>
<path d="M148.055 77.5558L142.746 91.3009H141.438L146.748 77.5558H148.055Z" fill="#263238"/>
<path d="M151.822 77.5558L146.519 91.3009H145.193L150.496 77.5558H151.822Z" fill="#263238"/>
<path d="M156.474 91.3009H154.419L152.569 77.5558H154.034L155.606 89.2511L157.107 77.5558H158.59L160.072 89.2511L161.591 77.5558H162.898L161.09 91.3009H159.108L157.818 81.9754L156.474 91.3009Z" fill="#263238"/>
<path d="M167.683 91.3009H165.622L163.778 77.5558H165.242L166.815 89.2511L168.316 77.5558H169.798L171.275 89.2511L172.799 77.5558H174.119L172.311 91.3009H170.335L169.045 81.9754L167.683 91.3009Z" fill="#263238"/>
<path d="M178.892 91.3009H176.831L174.987 77.5558H176.451L178.024 89.2511L179.525 77.5558H181.007L182.484 89.2511L184.002 77.5558H185.31L183.502 91.3009H181.525L180.236 81.9754L178.892 91.3009Z" fill="#263238"/>
<path d="M187.196 89.3989V91.3009H185.75V89.3989H187.196Z" fill="#263238"/>
<path d="M190.173 89.3989V91.3009H188.733V89.3989H190.173Z" fill="#263238"/>
<path d="M193.157 89.3989V91.3009H191.71V89.3989H193.157Z" fill="#263238"/>
<path d="M98.9696 91.1888C102.903 90.2746 105.366 86.2766 104.471 82.259C103.576 78.2415 99.6616 75.7258 95.7283 76.64C91.795 77.5542 89.332 81.5522 90.2271 85.5698C91.1222 89.5873 95.0363 92.103 98.9696 91.1888Z" fill="url(#paint0_linear_7_1506)" stroke="#263238" stroke-width="0.436109" stroke-linecap="round" stroke-linejoin="round"/>
<path d="M99.7244 90.4022L100.893 89.4481L100.773 88.8326L100.423 87.7554L99.7244 86.9182L97.1511 86.0872C96.7919 86.2219 96.4416 86.3802 96.1025 86.5612C95.4035 86.9182 95.4035 86.6843 94.9334 86.6843C94.5626 86.6447 94.2048 86.5228 93.8848 86.3273L93.0653 84.8931L93.6679 83.4589L94.367 82.6279L94.5718 81.3291L95.5059 78.8238L95.741 77.1557C95.7185 76.9827 95.64 76.8224 95.518 76.7002C94.372 77.0011 93.3148 77.5818 92.4372 78.3924C91.5596 79.203 90.8879 80.2193 90.48 81.3537C90.4247 81.6218 90.3864 81.8932 90.3655 82.1662L90.486 83.4774L90.95 84.1975L91.8841 85.0285L92.4867 85.8657L93.5413 87.5338L94.7044 88.0139L95.524 89.0849V91.1409C95.6566 91.1778 95.7952 91.2147 95.9338 91.2393C96.4094 91.242 96.8837 91.2915 97.35 91.3871C97.4645 91.3871 97.579 91.3871 97.6875 91.3871C98.401 91.1392 99.0844 90.8088 99.7244 90.4022Z" fill="white" stroke="#263238" stroke-width="0.436109" stroke-linecap="round" stroke-linejoin="round"/>
<path d="M100.285 77.0942L100.074 77.3958L99.7245 78.7069C99.7245 78.7069 98.9049 79.901 99.375 80.6151C99.7931 81.1486 100.309 81.5939 100.894 81.9262H101.942L102.876 81.5692C102.876 81.5692 103.226 81.4522 103.226 82.2832C103.348 83.0501 103.628 83.782 104.045 84.4314L104.473 85.5271C104.59 84.9999 104.648 84.461 104.648 83.9205C104.647 82.4732 104.234 81.0574 103.459 79.8454C102.684 78.6335 101.582 77.6776 100.285 77.0942Z" fill="white" stroke="#263238" stroke-width="0.436109" stroke-linecap="round" stroke-linejoin="round"/>
<path d="M76.8546 70.7787H31.0244C28.5914 70.7787 26.6191 72.7932 26.6191 75.2783V92.5689C26.6191 95.054 28.5914 97.0685 31.0244 97.0685H76.8546C79.2875 97.0685 81.2598 95.054 81.2598 92.5689V75.2783C81.2598 72.7932 79.2875 70.7787 76.8546 70.7787Z" fill="white" stroke="#263238" stroke-width="0.436109" stroke-linecap="round" stroke-linejoin="round"/>
<path d="M31.1749 85.2009L43.9929 92.0519C44.1497 92.1353 44.3248 92.1761 44.5015 92.1704C44.6782 92.1647 44.8505 92.1127 45.0018 92.0193C45.1531 91.926 45.2783 91.7944 45.3655 91.6374C45.4527 91.4803 45.4988 91.3029 45.4995 91.1224V77.4143C45.4998 77.2332 45.4545 77.0551 45.3677 76.8972C45.281 76.7392 45.1558 76.6068 45.0043 76.5128C44.8529 76.4187 44.6802 76.3661 44.503 76.3601C44.3258 76.3542 44.1501 76.395 43.9929 76.4786L31.1749 83.3358C31.0082 83.4249 30.8686 83.5589 30.7712 83.7233C30.6738 83.8877 30.6223 84.0762 30.6223 84.2683C30.6223 84.4605 30.6738 84.649 30.7712 84.8134C30.8686 84.9777 31.0082 85.1118 31.1749 85.2009Z" fill="#263238" stroke="#263238" stroke-width="0.436109" stroke-linecap="round" stroke-linejoin="round"/>
<path d="M75.4803 85.2009L62.6623 92.0519C62.5056 92.1353 62.3304 92.1761 62.1537 92.1704C61.9771 92.1647 61.8048 92.1127 61.6535 92.0193C61.5022 91.926 61.3769 91.7944 61.2897 91.6374C61.2026 91.4803 61.1564 91.3029 61.1558 91.1224V77.4143C61.1554 77.2332 61.2008 77.0551 61.2875 76.8972C61.3743 76.7392 61.4994 76.6068 61.6509 76.5128C61.8024 76.4187 61.9751 76.3661 62.1522 76.3601C62.3294 76.3542 62.5051 76.395 62.6623 76.4786L75.4803 83.3358C75.647 83.4249 75.7866 83.5589 75.884 83.7233C75.9814 83.8877 76.0329 84.0762 76.0329 84.2683C76.0329 84.4605 75.9814 84.649 75.884 84.8134C75.7866 84.9777 75.647 85.1118 75.4803 85.2009Z" fill="#263238" stroke="#263238" stroke-width="0.436109" stroke-linecap="round" stroke-linejoin="round"/>
<path d="M232.737 176.824H164.7C163.249 176.83 161.848 177.37 160.755 178.346C159.662 179.322 158.951 180.668 158.752 182.136L148.604 259.307H228.754L238.685 183.768C238.795 182.902 238.723 182.023 238.474 181.189C238.226 180.354 237.806 179.583 237.244 178.926C236.682 178.27 235.989 177.743 235.212 177.38C234.435 177.018 233.592 176.829 232.737 176.824Z" fill="#263238"/>
<path d="M102.437 231.983C106.824 234.544 115.592 235.184 116.846 233.904C118.099 232.623 128.965 213.203 128.965 213.203C128.965 213.203 130.218 229.632 130.218 236.033C130.218 240.373 127.916 252.161 126.427 259.307H196.827L199.358 235.184C201.816 238.73 204.692 241.953 207.921 244.78C212.935 249.052 218.166 247.981 223.379 244.996C228.592 242.01 231.111 235.609 229.646 229.207C228.182 222.805 216.069 195.284 214.189 191.659C212.309 188.033 211.682 179.28 209.175 179.065C206.668 178.849 182.02 169.678 182.02 169.678C182.02 169.678 166.954 165.412 164.682 166.052C162.411 166.693 144.422 167.757 143.373 167.757C142.325 167.757 130.007 168.828 127.102 170.318C124.198 171.808 119.371 180.782 118.328 184.402C117.285 188.021 95.3497 216.619 94.7229 221.334C94.0962 226.049 98.0495 229.422 102.437 231.983Z" fill="url(#paint1_linear_7_1506)" stroke="#263238" stroke-width="0.436109" stroke-linecap="round" stroke-linejoin="round"/>
<path d="M168.057 235.984C162.031 240.625 152.66 247.544 145.693 251.447" stroke="#263238" stroke-width="0.436109" stroke-linecap="round" stroke-linejoin="round"/>
<path d="M174.12 231.238C174.12 231.238 173.282 231.915 171.854 233.042" stroke="#263238" stroke-width="0.436109" stroke-linecap="round" stroke-linejoin="round"/>
<path d="M163.314 243.728C163.314 243.728 152.166 251.81 146.055 254.752" stroke="#263238" stroke-width="0.436109" stroke-linecap="round" stroke-linejoin="round"/>
<path d="M199.376 196.897C199.713 196.128 200.069 195.328 200.455 194.497" stroke="#263238" stroke-width="0.436109" stroke-linecap="round" stroke-linejoin="round"/>
<path d="M194.681 210.593C194.681 210.593 195.386 206.617 198.255 199.556" stroke="#263238" stroke-width="0.436109" stroke-linecap="round" stroke-linejoin="round"/>
<path d="M192.578 209.516C192.578 209.516 192.319 204.955 193.892 202.006" stroke="#263238" stroke-width="0.436109" stroke-linecap="round" stroke-linejoin="round"/>
<path d="M128.965 213.203L125.12 200.4" stroke="#263238" stroke-width="0.436109" stroke-linecap="round" stroke-linejoin="round"/>
<path d="M142.891 181.57C142.891 181.57 143.271 184.869 143.65 186.421C144.03 187.972 144.591 192.619 144.591 192.619C144.591 192.619 147.604 187.972 148.387 186.999C149.171 186.027 146.676 180.795 146.676 180.795L142.891 181.57Z" fill="white" stroke="#263238" stroke-width="0.436109" stroke-linecap="round" stroke-linejoin="round"/>
<path d="M146.875 174.59L142.891 181.57C142.891 181.57 146.507 186.224 150.123 188.957C153.738 191.69 159.234 196.128 159.234 196.128C159.234 196.128 156.577 187.215 156.01 184.691C155.444 182.167 150.695 173.642 150.695 173.642C150.695 173.642 148.206 172.657 146.875 174.59Z" fill="white" stroke="#263238" stroke-width="0.436109" stroke-linecap="round" stroke-linejoin="round"/>
<path d="M182.936 154.819C182.936 154.819 183.695 156.37 182.556 156.955C181.378 157.477 180.17 157.929 178.941 158.309L179.133 167.228C179.133 167.228 171.167 181.767 168.696 185.257C166.225 188.747 159.204 196.109 159.204 196.109C159.204 196.109 152.648 186.876 151.888 184.58C151.129 182.284 148.212 173.587 148.212 173.587C148.212 173.587 160.151 172.269 162.621 170.509C165.092 168.748 169.455 163.738 170.594 159.072C171.733 154.406 169.076 151.686 172.679 148.99C176.283 146.293 178.561 145.112 180.08 145.912C181.598 146.712 182.936 154.819 182.936 154.819Z" fill="white" stroke="#263238" stroke-width="0.436109" stroke-linecap="round" stroke-linejoin="round"/>
<path d="M176.223 155.145L178.947 158.309C178.947 158.309 181.544 159.183 182.936 154.819C184.328 150.455 180.086 145.899 180.086 145.899L176.223 155.145Z" fill="#263238" stroke="#263238" stroke-width="0.436109" stroke-linecap="round" stroke-linejoin="round"/>
<path d="M164.905 183.318L159.21 196.109L170.787 187.972L164.905 183.318Z" fill="white" stroke="#263238" stroke-width="0.436109" stroke-linecap="round" stroke-linejoin="round"/>
<path d="M179.308 162.642C179.308 162.642 174.777 170.521 172.499 173.821C170.221 177.12 164.905 183.318 164.905 183.318L171.739 194.17C171.739 194.17 178.109 182.155 180.086 178.277C181.386 175.86 182.284 173.239 182.743 170.521L179.308 162.642Z" fill="white" stroke="#263238" stroke-width="0.436109" stroke-linecap="round" stroke-linejoin="round"/>
<path d="M179.899 151.501C179.899 151.501 178.76 154.215 178.38 154.794C178 155.373 174.963 156.93 174.963 156.93L173.637 155.194L173.824 143.948V135.047C173.824 135.047 179.706 136.789 180.658 140.28C181.61 143.77 179.899 151.501 179.899 151.501Z" fill="white" stroke="#263238" stroke-width="0.436109" stroke-linecap="round" stroke-linejoin="round"/>
<path d="M140.233 138.728C140.233 138.728 137.576 136.402 136.618 133.496C135.66 130.591 134.34 126.725 137.377 122.25C140.414 117.775 149.333 106.745 159.204 106.745C169.075 106.745 180.839 113.331 185.967 117.406C191.096 121.481 195.073 129.421 196.784 132.912C198.496 136.402 196.405 138.919 195.646 140.47C193.982 143.874 194.844 148.134 193.301 151.606C191.313 156.068 186.564 155.914 182.55 156.955C181.791 157.145 180.272 156.37 179.133 153.261C177.994 150.153 178.181 144.342 174.77 137.947C171.359 131.551 151.997 124.965 140.233 138.728Z" fill="#575757" stroke="#263238" stroke-width="0.436109" stroke-linecap="round" stroke-linejoin="round"/>
<path d="M194.76 141.228C194.76 141.228 194.103 128.246 187.528 119.653" stroke="#263238" stroke-width="0.436109" stroke-linecap="round" stroke-linejoin="round"/>
<path d="M151.352 112.383C154.058 110.469 156.227 109.133 159.789 108.456" stroke="#787878" stroke-width="0.436109" stroke-linecap="round" stroke-linejoin="round"/>
<path d="M140.053 126.645C140.053 126.645 143.614 117.548 149.207 113.922" stroke="#787878" stroke-width="0.436109" stroke-linecap="round" stroke-linejoin="round"/>
<path d="M160.578 112.106C163.706 111.091 165.628 110.58 165.628 110.58" stroke="#787878" stroke-width="0.436109" stroke-linecap="round" stroke-linejoin="round"/>
<path d="M143.771 124.663C143.771 124.663 148.628 116.39 154.944 114.076C155.872 113.737 156.752 113.423 157.601 113.128" stroke="#787878" stroke-width="0.436109" stroke-linecap="round" stroke-linejoin="round"/>
<path d="M150.575 124.99C152.351 121.932 155.007 119.508 158.18 118.046C163.525 115.584 167.894 114.408 171.293 114.408" stroke="#787878" stroke-width="0.436109" stroke-linecap="round" stroke-linejoin="round"/>
<path d="M167.912 118.434C169.286 117.966 170.16 117.714 170.16 117.714" stroke="#787878" stroke-width="0.436109" stroke-linecap="round" stroke-linejoin="round"/>
<path d="M155.589 124.823C155.589 124.823 160.126 121.518 163.682 120.028C164.285 119.788 164.827 119.567 165.363 119.357" stroke="#787878" stroke-width="0.436109" stroke-linecap="round" stroke-linejoin="round"/>
<path d="M172.589 133.422C172.589 133.422 178.742 130.616 184.244 130.449" stroke="#787878" stroke-width="0.436109" stroke-linecap="round" stroke-linejoin="round"/>
<path d="M146.115 126.516C146.115 126.516 139.282 127.679 138.884 132.524C138.486 137.368 139.263 145.709 140.023 148.035C140.782 150.362 140.023 157.73 139.263 162.962C138.504 168.194 142.277 173.624 145.338 175.562C148.399 177.501 152.931 178.468 158.433 176.726C163.935 174.984 169.25 171.685 171.528 168.391C173.806 165.098 173.619 164.513 173.999 163.929C174.379 163.344 174.945 160.235 174.945 156.955V145.346C174.945 142.434 174.758 137.959 174.758 137.959C174.758 137.959 164.146 122.25 146.115 126.516Z" fill="white" stroke="#263238" stroke-width="0.436109" stroke-linecap="round" stroke-linejoin="round"/>
<path d="M167.304 130.708C167.635 133.256 168.509 137.959 170.787 139.116C173.445 140.477 173.445 142.409 172.878 145.709C172.312 149.008 171.739 156.788 169.262 158.887C166.785 160.986 165.466 162.378 162.633 161.214C159.801 160.051 158.65 158.309 154.281 158.136C149.912 157.964 147.447 157.361 145.549 158.327C144.481 158.864 143.471 159.514 142.536 160.266C141.622 158.803 140.828 157.265 140.161 155.668C139.956 158.13 139.631 160.746 139.305 162.981C138.546 168.213 142.319 173.642 145.38 175.581C148.441 177.52 152.973 178.486 158.475 176.744C163.977 175.002 169.292 171.703 171.57 168.41C173.848 165.117 173.661 164.532 174.041 163.947C174.421 163.362 174.987 160.254 174.987 156.973V145.346C174.987 142.434 176.928 142.452 176.928 142.452C176.928 142.452 176.096 137.159 167.304 130.708Z" fill="#263238" stroke="#263238" stroke-width="0.436109" stroke-linecap="round" stroke-linejoin="round"/>
<path d="M143.831 127.181C144.687 128.584 147.061 131.748 151.063 131.748C155.064 131.748 158.548 128.744 160.476 127.181C155.852 125.572 150.875 125.341 146.127 126.516C145.344 126.666 144.575 126.889 143.831 127.181Z" fill="#263238" stroke="#263238" stroke-width="0.436109" stroke-linecap="round" stroke-linejoin="round"/>
<path d="M148.96 140.864L149.912 144.348C149.912 144.348 148.96 150.553 148.773 153.077C148.586 155.6 147.062 158.118 151.431 158.118C155.8 158.118 156.553 156.179 156.553 154.819" stroke="#263238" stroke-width="0.436109" stroke-linecap="round" stroke-linejoin="round"/>
<path d="M155.034 139.701C155.034 139.701 155.607 138.538 159.403 138.538C161.724 138.563 163.957 139.452 165.683 141.037" stroke="#263238" stroke-width="0.872218" stroke-linecap="round" stroke-linejoin="round"/>
<path d="M146.495 140.089C145.593 139.587 144.582 139.324 143.554 139.324C142.527 139.324 141.516 139.587 140.613 140.089" stroke="#263238" stroke-width="0.872218" stroke-linecap="round" stroke-linejoin="round"/>
<path d="M146.905 161.3C148.544 161.957 150.295 162.271 152.055 162.223C153.814 162.176 155.547 161.768 157.15 161.023" stroke="white" stroke-width="0.872218" stroke-linecap="round" stroke-linejoin="round"/>
<path d="M160.446 146.872C161.128 146.872 161.681 146.133 161.681 145.222C161.681 144.311 161.128 143.573 160.446 143.573C159.764 143.573 159.21 144.311 159.21 145.222C159.21 146.133 159.764 146.872 160.446 146.872Z" fill="#263238"/>
<path d="M145.736 146.872C146.418 146.872 146.971 146.133 146.971 145.222C146.971 144.311 146.418 143.573 145.736 143.573C145.053 143.573 144.5 144.311 144.5 145.222C144.5 146.133 145.053 146.872 145.736 146.872Z" fill="#263238"/>
<path d="M148.773 147.063C147.993 147.849 147.096 148.503 146.115 149.002" stroke="#263238" stroke-width="0.436109" stroke-linecap="round" stroke-linejoin="round"/>
<path d="M157.692 147.26C157.692 147.26 159.21 149.777 161.307 149.587" stroke="#263238" stroke-width="0.436109" stroke-linecap="round" stroke-linejoin="round"/>
<path d="M154.926 186.587C153.459 185.735 152.089 184.722 150.84 183.565C149.357 182.056 149.032 179.921 147.706 181.786C146.38 183.651 147.007 185.251 148.749 186.495C150.49 187.738 155.438 188.557 155.438 188.557C155.438 188.557 156.752 187.578 154.926 186.587Z" fill="white" stroke="#263238" stroke-width="0.436109" stroke-linecap="round" stroke-linejoin="round"/>
<path d="M155.535 187.135C155.535 187.135 148.906 184.642 147.791 184.82C147.142 184.941 146.545 185.26 146.079 185.737C145.612 186.213 145.299 186.823 145.181 187.486C145.135 187.97 145.206 188.459 145.389 188.909C145.572 189.359 145.861 189.756 146.23 190.065C146.23 190.065 145.097 192.108 145.097 192.816C145.124 193.388 145.211 193.956 145.356 194.509C145.356 194.509 143.964 195.931 143.964 196.971C143.964 198.011 145.097 199.193 145.097 199.193C144.854 200.171 144.946 201.205 145.356 202.123C146.055 203.545 150.316 207.546 152.841 208.703C155.105 209.615 157.432 210.357 159.801 210.925L170.588 218.029L176.765 207.103C176.765 207.103 169.534 201.858 168.497 200.523C166.727 198.037 165.294 195.319 164.237 192.441C163.453 189.862 155.968 187.11 155.968 187.11L155.535 187.135Z" fill="white" stroke="#263238" stroke-width="0.436109" stroke-linecap="round" stroke-linejoin="round"/>
<path d="M146.23 190.065L150.316 192.367" stroke="#263238" stroke-width="0.436109" stroke-linecap="round" stroke-linejoin="round"/>
<path d="M145.356 194.509L149.412 197.445" stroke="#263238" stroke-width="0.436109" stroke-linecap="round" stroke-linejoin="round"/>
<path d="M145.097 199.218L147.905 201.446" stroke="#263238" stroke-width="0.436109" stroke-linecap="round" stroke-linejoin="round"/>
<path d="M141.625 208.679H129.476C129.087 208.677 128.711 208.531 128.419 208.267C128.127 208.003 127.94 207.639 127.891 207.244L125.071 183.417C125.04 183.186 125.058 182.951 125.123 182.728C125.189 182.505 125.301 182.299 125.451 182.124C125.601 181.949 125.787 181.809 125.995 181.713C126.202 181.618 126.428 181.569 126.656 181.57H144.446C144.674 181.569 144.899 181.618 145.107 181.713C145.315 181.809 145.501 181.949 145.651 182.124C145.801 182.299 145.913 182.505 145.978 182.728C146.044 182.951 146.062 183.186 146.031 183.417L143.21 207.244C143.162 207.639 142.974 208.003 142.683 208.267C142.391 208.531 142.015 208.677 141.625 208.679Z" fill="white" stroke="#263238" stroke-width="0.436109" stroke-linecap="round" stroke-linejoin="round"/>
<path d="M127.627 180.074C128.193 179.595 128.634 178.98 128.91 178.284C129.187 177.588 129.29 176.833 129.211 176.086C128.97 173.47 126.162 173.593 126.162 170.73C126.162 167.868 127.627 167.862 128.362 164.877" stroke="#263238" stroke-width="0.436109" stroke-miterlimit="10" stroke-linecap="round"/>
<path d="M134.581 179.945C134.581 179.945 135.551 179.2 135.551 176.96C135.551 174.719 133.84 175.113 133.478 172.596" stroke="#263238" stroke-width="0.436109" stroke-miterlimit="10" stroke-linecap="round"/>
<path d="M175.126 204.887L166.978 217.475L174.915 223.661L183.273 209.362L175.126 204.887Z" fill="url(#paint2_linear_7_1506)" stroke="#263238" stroke-width="0.436109" stroke-linecap="round" stroke-linejoin="round"/>
<path d="M227.35 223.236C227.35 223.236 231.11 233.7 231.526 237.314C231.942 240.927 228.808 248.837 226.705 251.822C224.602 254.807 212.079 251.822 202.889 247.341C193.699 242.86 176.373 230.912 174.897 229.207C173.42 227.502 174.897 223.667 174.897 223.667L183.273 209.362C183.273 209.362 184.738 207.651 186.612 207.866C188.486 208.082 216.069 220.669 216.069 220.669" fill="url(#paint3_linear_7_1506)"/>
<path d="M227.35 223.236C227.35 223.236 231.11 233.7 231.526 237.314C231.942 240.927 228.808 248.837 226.705 251.822C224.602 254.807 212.079 251.822 202.889 247.341C193.699 242.86 176.373 230.912 174.897 229.207C173.42 227.502 174.897 223.667 174.897 223.667L183.273 209.362C183.273 209.362 184.738 207.651 186.612 207.866C188.486 208.082 216.069 220.669 216.069 220.669" stroke="#263238" stroke-width="0.436109" stroke-linecap="round" stroke-linejoin="round"/>
<path d="M96.5846 217.475C96.5846 217.475 91.3659 223.015 90.1124 229.632C88.8589 236.249 91.5707 240.939 93.0351 244.14C94.4995 247.341 95.5421 248.621 97.8562 248.837C100.17 249.052 112.922 247.132 113.73 244.996C114.537 242.86 117.285 237.954 116.863 232.408C116.441 226.862 109.957 220.442 104.316 220.885" fill="url(#paint4_linear_7_1506)"/>
<path d="M96.5846 217.475C96.5846 217.475 91.3659 223.015 90.1124 229.632C88.8589 236.249 91.5707 240.939 93.0351 244.14C94.4995 247.341 95.5421 248.621 97.8562 248.837C100.17 249.052 112.922 247.132 113.73 244.996C114.537 242.86 117.285 237.954 116.863 232.408C116.441 226.862 109.957 220.442 104.316 220.885" stroke="#263238" stroke-width="0.436109" stroke-linecap="round" stroke-linejoin="round"/>
<path d="M97.8382 248.837C97.8382 248.837 96.7957 243.5 104.521 240.939C112.247 238.379 114.965 240.73 114.549 243.715C114.133 246.701 102.436 251.613 97.8382 248.837Z" fill="url(#paint5_linear_7_1506)" stroke="#263238" stroke-width="0.436109" stroke-linecap="round" stroke-linejoin="round"/>
<path d="M115.224 244.257C115.224 244.257 117.478 246.793 119.738 246.793C121.998 246.793 125.602 250.942 127.181 252.093C128.76 253.244 132.375 253.478 131.242 256.476C130.109 259.473 125.602 257.627 123.571 256.476C121.54 255.324 120.413 253.016 118.834 253.016C117.255 253.016 115.676 253.478 111.386 254.629C107.095 255.78 101.912 253.939 104.847 250.48C107.782 247.021 115.224 244.257 115.224 244.257Z" fill="white" stroke="#263238" stroke-width="0.436109" stroke-linecap="round" stroke-linejoin="round"/>
<path d="M99.2063 248.64C99.2063 248.64 96.0425 248.64 95.3675 251.508C94.6926 254.377 95.3675 258.365 98.0733 259.467C100.779 260.569 99.4292 257.479 99.4292 255.491V249.951L99.2063 248.64Z" fill="white" stroke="#263238" stroke-width="0.436109" stroke-linecap="round" stroke-linejoin="round"/>
<path d="M103.714 244.953C103.714 244.953 98.5254 246.565 98.5254 249.557C98.5254 252.548 100.104 258.79 102.364 259.239C104.624 259.689 104.847 257.854 104.395 254.401C103.943 250.948 103.714 244.953 103.714 244.953Z" fill="white" stroke="#263238" stroke-width="0.436109" stroke-linecap="round" stroke-linejoin="round"/>
<path d="M109.132 242.878C109.132 242.878 105.516 240.57 104.166 243.568C102.816 246.565 103.491 253.939 104.847 256.014C106.203 258.088 109.132 257.627 109.355 254.401C109.578 251.176 109.132 242.878 109.132 242.878Z" fill="white" stroke="#263238" stroke-width="0.436109" stroke-linecap="round" stroke-linejoin="round"/>
<path d="M115.893 243.438C115.912 242.713 115.713 241.999 115.323 241.393C114.933 240.787 114.371 240.317 113.712 240.047C113.112 239.826 112.466 239.769 111.837 239.88C108.909 240.342 108.457 242.417 108.909 244.257C109.361 246.097 108.68 254.863 110.259 256.476C111.837 258.088 114.549 257.165 115.224 255.552C115.767 254.297 115.875 246.51 115.893 243.438Z" fill="white" stroke="#263238" stroke-width="0.436109" stroke-linecap="round" stroke-linejoin="round"/>
<path d="M264.515 259.307H9.80005" stroke="#263238" stroke-width="0.436109" stroke-linecap="round" stroke-linejoin="round"/>
<path d="M154.564 266.54L91.836 257.922L50.4231 258.759L98.3685 274L154.564 266.54Z" fill="#D1D1D1" stroke="#263238" stroke-width="0.436109" stroke-linecap="round" stroke-linejoin="round"/>
<path d="M105.871 260.501L97.6937 261.166L115.194 263.837L125.662 263.505L105.871 260.501Z" stroke="#263238" stroke-width="0.436109" stroke-linecap="round" stroke-linejoin="round"/>
<path d="M96.3798 261.837L122.552 266.176L97.1993 267.685" stroke="#263238" stroke-width="0.436109" stroke-linecap="round" stroke-linejoin="round"/>
<path d="M38.6779 206.216L50.4232 258.759L98.3686 274L85.3517 208.488L38.6779 206.216Z" fill="#D1D1D1" stroke="#263238" stroke-width="0.436109" stroke-linecap="round" stroke-linejoin="round"/>
<path d="M88.0157 221.901C81.3867 228.345 73.7695 239.105 65.0434 249.865C59.9511 256.143 54.6299 257.953 50.2548 258.002L50.4235 258.759L98.3689 273.994L88.0157 221.901Z" fill="#A6A6A6" stroke="#263238" stroke-width="0.436109" stroke-linecap="round" stroke-linejoin="round"/>
<path d="M68.3817 233.793C69.0386 236.692 68.1045 239.382 66.3027 239.813C64.5008 240.244 62.5001 238.237 61.8432 235.338C61.1863 232.439 62.1204 229.743 63.9223 229.318C65.7241 228.893 67.7249 230.906 68.3817 233.793Z" fill="white" stroke="#263238" stroke-width="0.436109" stroke-linecap="round" stroke-linejoin="round"/>
<path d="M98.3687 274L154.564 269.137V266.54L97.4165 269.784L98.3687 274Z" fill="#A6A6A6" stroke="#263238" stroke-width="0.436109" stroke-linecap="round" stroke-linejoin="round"/>
<defs>
<linearGradient id="paint0_linear_7_1506" x1="95.7283" y1="76.64" x2="99.1028" y2="91.1579" gradientUnits="userSpaceOnUse">
<stop offset="0.424" stop-color="#F772D1"/>
<stop offset="1" stop-color="#704192"/>
</linearGradient>
<linearGradient id="paint1_linear_7_1506" x1="162.358" y1="165.987" x2="162.358" y2="259.307" gradientUnits="userSpaceOnUse">
<stop offset="0.424" stop-color="#F772D1"/>
<stop offset="1" stop-color="#704192"/>
</linearGradient>
<linearGradient id="paint2_linear_7_1506" x1="175.126" y1="204.887" x2="175.126" y2="223.661" gradientUnits="userSpaceOnUse">
<stop offset="0.424" stop-color="#F772D1"/>
<stop offset="1" stop-color="#704192"/>
</linearGradient>
<linearGradient id="paint3_linear_7_1506" x1="202.902" y1="207.847" x2="202.902" y2="253.024" gradientUnits="userSpaceOnUse">
<stop offset="0.424" stop-color="#F772D1"/>
<stop offset="1" stop-color="#704192"/>
</linearGradient>
<linearGradient id="paint4_linear_7_1506" x1="103.349" y1="217.475" x2="103.349" y2="248.853" gradientUnits="userSpaceOnUse">
<stop offset="0.424" stop-color="#F772D1"/>
<stop offset="1" stop-color="#704192"/>
</linearGradient>
<linearGradient id="paint5_linear_7_1506" x1="106.191" y1="239.845" x2="106.191" y2="249.658" gradientUnits="userSpaceOnUse">
<stop offset="0.424" stop-color="#F772D1"/>
<stop offset="1" stop-color="#704192"/>
</linearGradient>
</defs>
</svg>
