<svg width="151" height="149" viewBox="0 0 151 149" fill="none" xmlns="http://www.w3.org/2000/svg">
<rect width="151" height="149" rx="74.5" fill="#DEB1D2"/>
<rect x="12" y="12" width="127" height="125" rx="62.5" fill="#E565A2" fill-opacity="0.27"/>
<g clip-path="url(#clip0_52_1739)">
<rect x="31" y="30" width="90" height="90" rx="45" fill="white"/>
<path d="M76 30C80.1309 30 84.1152 30.5273 87.9531 31.582C91.791 32.6367 95.3652 34.1602 98.6758 36.1523C101.986 38.1445 105.019 40.4883 107.772 43.1836C110.526 45.8789 112.885 48.9111 114.848 52.2803C116.811 55.6494 118.319 59.2383 119.374 63.0469C120.429 66.8555 120.971 70.8398 121 75C121 79.1309 120.473 83.1152 119.418 86.9531C118.363 90.791 116.84 94.3652 114.848 97.6758C112.855 100.986 110.512 104.019 107.816 106.772C105.121 109.526 102.089 111.885 98.7197 113.848C95.3506 115.811 91.7617 117.319 87.9531 118.374C84.1445 119.429 80.1602 119.971 76 120C71.8691 120 67.8848 119.473 64.0469 118.418C60.209 117.363 56.6348 115.84 53.3242 113.848C50.0137 111.855 46.9814 109.512 44.2275 106.816C41.4736 104.121 39.1152 101.089 37.1523 97.7197C35.1895 94.3506 33.6807 90.7617 32.626 86.9531C31.5713 83.1445 31.0293 79.1602 31 75C31 70.8691 31.5273 66.8848 32.582 63.0469C33.6367 59.209 35.1602 55.6348 37.1523 52.3242C39.1445 49.0137 41.4883 45.9814 44.1836 43.2275C46.8789 40.4736 49.9111 38.1152 53.2803 36.1523C56.6494 34.1895 60.2383 32.6807 64.0469 31.626C67.8555 30.5713 71.8398 30.0293 76 30ZM102.499 60.1025L96.5225 54.126L67.5625 83.0859L55.4775 71.001L49.501 76.9775L67.5625 95.0391L102.499 60.1025Z" fill="url(#paint0_linear_52_1739)"/>
</g>
<defs>
<linearGradient id="paint0_linear_52_1739" x1="25.5038" y1="75.3435" x2="121" y2="108.321" gradientUnits="userSpaceOnUse">
<stop stop-color="#E364A2"/>
<stop offset="1" stop-color="#794493"/>
</linearGradient>
<clipPath id="clip0_52_1739">
<rect x="31" y="30" width="90" height="90" rx="45" fill="white"/>
</clipPath>
</defs>
</svg>
