<svg width="86" height="36" viewBox="0 0 86 36" fill="none" xmlns="http://www.w3.org/2000/svg">
<g clip-path="url(#clip0_411_498)">
<path d="M4 5C2.93913 5 1.92172 5.42143 1.17157 6.17157C0.421427 6.92172 0 7.93913 0 9L0 27C0 28.0609 0.421427 29.0783 1.17157 29.8284C1.92172 30.5786 2.93913 31 4 31H12V5H4Z" fill="#009A49"/>
<path d="M12 5H24V31H12V5Z" fill="#EEEEEE"/>
<path d="M32 5H24V31H32C33.0609 31 34.0783 30.5786 34.8284 29.8284C35.5786 29.0783 36 28.0609 36 27V9C36 7.93913 35.5786 6.92172 34.8284 6.17157C34.0783 5.42143 33.0609 5 32 5Z" fill="#009A49"/>
</g>
<path d="M49.6 21.604C49.464 21.604 49.36 21.568 49.288 21.496C49.216 21.416 49.18 21.308 49.18 21.172V18.964H47.008C46.872 18.964 46.768 18.928 46.696 18.856C46.624 18.784 46.588 18.684 46.588 18.556C46.588 18.428 46.624 18.328 46.696 18.256C46.768 18.184 46.872 18.148 47.008 18.148H49.18V16.012C49.18 15.868 49.216 15.76 49.288 15.688C49.36 15.616 49.468 15.58 49.612 15.58C49.748 15.58 49.848 15.616 49.912 15.688C49.984 15.76 50.02 15.868 50.02 16.012V18.148H52.192C52.328 18.148 52.432 18.184 52.504 18.256C52.576 18.328 52.612 18.428 52.612 18.556C52.612 18.684 52.576 18.784 52.504 18.856C52.432 18.928 52.328 18.964 52.192 18.964H50.02V21.172C50.02 21.308 49.984 21.416 49.912 21.496C49.848 21.568 49.744 21.604 49.6 21.604ZM54.7553 22C54.5633 22 54.4193 21.956 54.3233 21.868C54.2353 21.772 54.1913 21.644 54.1913 21.484C54.1913 21.388 54.2153 21.292 54.2633 21.196C54.3113 21.1 54.3833 21.004 54.4793 20.908L57.1073 18.088C57.5073 17.664 57.7953 17.272 57.9713 16.912C58.1473 16.552 58.2353 16.188 58.2353 15.82C58.2353 15.356 58.0913 15.004 57.8033 14.764C57.5233 14.516 57.1113 14.392 56.5673 14.392C56.2313 14.392 55.9073 14.448 55.5953 14.56C55.2913 14.664 54.9913 14.828 54.6953 15.052C54.5833 15.132 54.4793 15.168 54.3833 15.16C54.2873 15.152 54.2033 15.116 54.1313 15.052C54.0673 14.98 54.0193 14.9 53.9873 14.812C53.9633 14.716 53.9673 14.616 53.9993 14.512C54.0313 14.408 54.0993 14.32 54.2033 14.248C54.5313 13.992 54.9113 13.792 55.3433 13.648C55.7753 13.504 56.2193 13.432 56.6753 13.432C57.2513 13.432 57.7353 13.524 58.1273 13.708C58.5273 13.884 58.8313 14.144 59.0393 14.488C59.2473 14.824 59.3513 15.236 59.3513 15.724C59.3513 16.06 59.2953 16.392 59.1833 16.72C59.0713 17.04 58.9033 17.368 58.6793 17.704C58.4633 18.04 58.1833 18.388 57.8393 18.748L55.3433 21.376V21.052H59.2793C59.4393 21.052 59.5593 21.092 59.6393 21.172C59.7273 21.252 59.7713 21.368 59.7713 21.52C59.7713 21.672 59.7273 21.792 59.6393 21.88C59.5593 21.96 59.4393 22 59.2793 22H54.7553ZM63.8826 22.108C63.4186 22.108 62.9546 22.044 62.4906 21.916C62.0266 21.788 61.6226 21.596 61.2786 21.34C61.1666 21.26 61.0906 21.168 61.0506 21.064C61.0106 20.96 60.9986 20.864 61.0146 20.776C61.0386 20.68 61.0866 20.6 61.1586 20.536C61.2306 20.472 61.3186 20.436 61.4226 20.428C61.5266 20.412 61.6386 20.44 61.7586 20.512C62.1026 20.736 62.4426 20.9 62.7786 21.004C63.1226 21.1 63.4786 21.148 63.8466 21.148C64.2386 21.148 64.5706 21.092 64.8426 20.98C65.1146 20.86 65.3186 20.688 65.4546 20.464C65.5986 20.232 65.6706 19.956 65.6706 19.636C65.6706 19.156 65.5146 18.796 65.2026 18.556C64.8906 18.308 64.4346 18.184 63.8346 18.184H62.9946C62.8266 18.184 62.6986 18.144 62.6106 18.064C62.5226 17.976 62.4786 17.86 62.4786 17.716C62.4786 17.564 62.5226 17.448 62.6106 17.368C62.6986 17.288 62.8266 17.248 62.9946 17.248H63.7386C64.0906 17.248 64.3906 17.188 64.6386 17.068C64.8866 16.94 65.0786 16.764 65.2146 16.54C65.3586 16.316 65.4306 16.044 65.4306 15.724C65.4306 15.292 65.2906 14.964 65.0106 14.74C64.7306 14.508 64.3266 14.392 63.7986 14.392C63.4546 14.392 63.1306 14.444 62.8266 14.548C62.5226 14.644 62.2146 14.808 61.9026 15.04C61.7986 15.112 61.6946 15.148 61.5906 15.148C61.4866 15.14 61.3986 15.104 61.3266 15.04C61.2626 14.976 61.2186 14.9 61.1946 14.812C61.1706 14.716 61.1746 14.616 61.2066 14.512C61.2386 14.408 61.3106 14.316 61.4226 14.236C61.7506 13.98 62.1266 13.784 62.5506 13.648C62.9826 13.504 63.4266 13.432 63.8826 13.432C64.4346 13.432 64.9066 13.52 65.2986 13.696C65.6986 13.872 66.0026 14.124 66.2106 14.452C66.4186 14.772 66.5226 15.16 66.5226 15.616C66.5226 15.96 66.4586 16.276 66.3306 16.564C66.2026 16.844 66.0186 17.084 65.7786 17.284C65.5466 17.476 65.2626 17.612 64.9266 17.692V17.56C65.5106 17.664 65.9626 17.908 66.2826 18.292C66.6106 18.668 66.7746 19.14 66.7746 19.708C66.7746 20.196 66.6546 20.624 66.4146 20.992C66.1826 21.352 65.8506 21.628 65.4186 21.82C64.9866 22.012 64.4746 22.108 63.8826 22.108ZM72.5899 22.084C72.4139 22.084 72.2779 22.036 72.1819 21.94C72.0859 21.844 72.0379 21.704 72.0379 21.52V20.236H68.7019C68.5259 20.236 68.3819 20.196 68.2699 20.116C68.1659 20.036 68.1139 19.912 68.1139 19.744C68.1139 19.648 68.1379 19.548 68.1859 19.444C68.2339 19.34 68.3179 19.2 68.4379 19.024L72.0019 13.828C72.0899 13.708 72.1819 13.616 72.2779 13.552C72.3819 13.488 72.4979 13.456 72.6259 13.456C72.7699 13.456 72.8899 13.504 72.9859 13.6C73.0899 13.688 73.1419 13.828 73.1419 14.02V19.288H73.9579C74.1339 19.288 74.2659 19.328 74.3539 19.408C74.4419 19.488 74.4859 19.604 74.4859 19.756C74.4859 19.916 74.4419 20.036 74.3539 20.116C74.2659 20.196 74.1339 20.236 73.9579 20.236H73.1419V21.52C73.1419 21.704 73.0939 21.844 72.9979 21.94C72.9019 22.036 72.7659 22.084 72.5899 22.084ZM72.0379 19.288V14.848H72.3379L69.0979 19.588V19.288H72.0379Z" fill="black"/>
<path d="M85 6.5V29.5" stroke="#D1D1D1"/>
<defs>
<clipPath id="clip0_411_498">
<rect width="36" height="36" fill="white"/>
</clipPath>
</defs>
</svg>
