<svg width="25" height="24" viewBox="0 0 25 24" fill="none" xmlns="http://www.w3.org/2000/svg">
<path d="M21.5 12H3.5M16.4998 12C16.4998 6.99984 14.7099 3 12.5 3C10.2901 3 8.50016 6.99984 8.50016 12C8.50016 17.0002 10.2901 21 12.5 21C14.7099 21 16.4998 17.0002 16.4998 12Z" stroke="url(#paint0_linear_70_155)" stroke-width="0.96" stroke-linecap="round" stroke-linejoin="round"/>
<path d="M12.5 21C17.4704 21 21.5 16.9704 21.5 12C21.5 7.0296 17.4704 3 12.5 3C7.5296 3 3.5 7.0296 3.5 12C3.5 16.9704 7.5296 21 12.5 21Z" stroke="url(#paint1_linear_70_155)" stroke-width="0.96" stroke-linecap="round" stroke-linejoin="round"/>
<defs>
<linearGradient id="paint0_linear_70_155" x1="12.5" y1="3" x2="12.5" y2="21" gradientUnits="userSpaceOnUse">
<stop stop-color="#F772D1"/>
<stop offset="1" stop-color="#704192"/>
</linearGradient>
<linearGradient id="paint1_linear_70_155" x1="12.5" y1="3" x2="12.5" y2="21" gradientUnits="userSpaceOnUse">
<stop stop-color="#F772D1"/>
<stop offset="1" stop-color="#704192"/>
</linearGradient>
</defs>
</svg>
