<svg width="25" height="24" viewBox="0 0 25 24" fill="none" xmlns="http://www.w3.org/2000/svg">
<path fill-rule="evenodd" clip-rule="evenodd" d="M7.03478 13.1425C7.51578 13.7305 8.73978 15.909 8.99978 17H15.9998C16.2598 15.91 17.4823 13.7315 17.9633 13.144C18.7852 12.1413 19.3026 10.9241 19.4543 9.6365C19.6039 8.35136 19.3801 7.05033 18.8098 5.889C18.2343 4.71884 17.3391 3.7357 16.2278 3.0535C15.1071 2.36373 13.8167 1.99899 12.5008 2C11.1823 2 9.89029 2.365 8.77379 3.0525C7.66218 3.73442 6.76658 4.7174 6.19078 5.8875C5.62013 7.04838 5.39586 8.34904 5.54479 9.634C5.69429 10.9175 6.21078 12.134 7.03478 13.1425ZM12.9998 6L9.99978 10.5H11.9998V13.5L14.9998 9H12.9998V6Z" fill="url(#paint0_linear_69_928)"/>
<path d="M9 18.5C9 18.3674 9.05268 18.2402 9.14645 18.1464C9.24021 18.0527 9.36739 18 9.5 18H15.5C15.6326 18 15.7598 18.0527 15.8536 18.1464C15.9473 18.2402 16 18.3674 16 18.5C16 18.6326 15.9473 18.7598 15.8536 18.8536C15.7598 18.9473 15.6326 19 15.5 19H9.5C9.36739 19 9.24021 18.9473 9.14645 18.8536C9.05268 18.7598 9 18.6326 9 18.5ZM16 20H9V21C9 21.2652 9.10536 21.5196 9.29289 21.7071C9.48043 21.8946 9.73478 22 10 22H15C15.2652 22 15.5196 21.8946 15.7071 21.7071C15.8946 21.5196 16 21.2652 16 21V20Z" fill="url(#paint1_linear_69_928)"/>
<defs>
<linearGradient id="paint0_linear_69_928" x1="12.4997" y1="2" x2="12.4997" y2="17" gradientUnits="userSpaceOnUse">
<stop offset="0.135" stop-color="#F772D1"/>
<stop offset="1" stop-color="#704192"/>
</linearGradient>
<linearGradient id="paint1_linear_69_928" x1="12.5" y1="18" x2="12.5" y2="22" gradientUnits="userSpaceOnUse">
<stop offset="0.135" stop-color="#F772D1"/>
<stop offset="1" stop-color="#704192"/>
</linearGradient>
</defs>
</svg>
