<svg width="24" height="24" viewBox="0 0 24 24" fill="none" xmlns="http://www.w3.org/2000/svg">
<path d="M23.2052 11.745C22.3485 9.50312 20.8546 7.56085 18.9077 6.1575L22.5002 2.5575L21.4427 1.5L1.50017 21.4425L2.55767 22.5L6.38267 18.6825C8.09025 19.6769 10.0244 20.2166 12.0002 20.25C14.4448 20.1581 16.8089 19.3518 18.8003 17.9309C20.7917 16.51 22.3231 14.5368 23.2052 12.255C23.2647 12.0902 23.2647 11.9098 23.2052 11.745ZM12.0002 16.875C10.9664 16.8745 9.95983 16.5434 9.12767 15.93L10.5002 14.5725C11.0693 14.8843 11.7241 15.0032 12.3665 14.9113C13.0089 14.8194 13.6042 14.5217 14.063 14.0629C14.5219 13.604 14.8196 13.0087 14.9115 12.3663C15.0034 11.724 14.8845 11.0691 14.5727 10.5L15.9302 9.1425C16.4585 9.8682 16.7759 10.7259 16.8473 11.6207C16.9186 12.5155 16.7411 13.4126 16.3344 14.2129C15.9277 15.0131 15.3076 15.6853 14.5427 16.1551C13.7778 16.6249 12.8978 16.8741 12.0002 16.875ZM3.39767 16.3575L7.14767 12.6075C7.12844 12.4056 7.12093 12.2028 7.12517 12C7.12715 10.7077 7.6414 9.46886 8.55521 8.55505C9.46903 7.64123 10.7078 7.12698 12.0002 7.125C12.1982 7.12631 12.396 7.13883 12.5927 7.1625L15.4277 4.335C14.3243 3.95616 13.1668 3.7586 12.0002 3.75C9.55556 3.84193 7.19146 4.64817 5.20007 6.06906C3.20868 7.48996 1.67729 9.46324 0.795169 11.745C0.735595 11.9098 0.735595 12.0902 0.795169 12.255C1.37196 13.7866 2.25784 15.1831 3.39767 16.3575Z" fill="#949494" fill-opacity="0.79"/>
</svg>
