<svg width="16" height="16" viewBox="0 0 16 16" fill="none" xmlns="http://www.w3.org/2000/svg">
<path d="M1.77778 2.22223C1.30628 2.22223 0.854097 2.40953 0.520699 2.74293C0.187301 3.07633 0 3.52851 0 4.00001L0 12C0 12.4715 0.187301 12.9237 0.520699 13.2571C0.854097 13.5905 1.30628 13.7778 1.77778 13.7778H5.33333V2.22223H1.77778Z" fill="#009A49"/>
<path d="M5.33301 2.22224H10.6663V13.7778H5.33301V2.22224Z" fill="#EEEEEE"/>
<path d="M14.2216 2.22223H10.666V13.7778H14.2216C14.6931 13.7778 15.1453 13.5905 15.4786 13.2571C15.812 12.9237 15.9993 12.4715 15.9993 12V4.00001C15.9993 3.52851 15.812 3.07633 15.4786 2.74293C15.1453 2.40953 14.6931 2.22223 14.2216 2.22223Z" fill="#009A49"/>
</svg>
