<svg width="18" height="19" viewBox="0 0 18 19" fill="none" xmlns="http://www.w3.org/2000/svg">
<path d="M8.99969 0C7.14317 0 5.36269 0.737498 4.04994 2.05025C2.73718 3.36301 1.99969 5.14348 1.99969 7V10.528C1.99983 10.6831 1.96388 10.8362 1.89469 10.975L0.177686 14.408C0.0938127 14.5757 0.0542083 14.7621 0.0626347 14.9494C0.0710612 15.1368 0.127239 15.3188 0.225831 15.4783C0.324424 15.6379 0.462159 15.7695 0.625953 15.8608C0.789748 15.9521 0.974164 16 1.16169 16H16.8377C17.0252 16 17.2096 15.9521 17.3734 15.8608C17.5372 15.7695 17.6749 15.6379 17.7735 15.4783C17.8721 15.3188 17.9283 15.1368 17.9367 14.9494C17.9452 14.7621 17.9056 14.5757 17.8217 14.408L16.1057 10.975C16.0361 10.8362 15.9999 10.6832 15.9997 10.528V7C15.9997 5.14348 15.2622 3.36301 13.9494 2.05025C12.6367 0.737498 10.8562 0 8.99969 0ZM8.99969 19C8.37903 19.0003 7.77356 18.8081 7.2667 18.4499C6.75985 18.0917 6.37657 17.5852 6.16969 17H11.8297C11.6228 17.5852 11.2395 18.0917 10.7327 18.4499C10.2258 18.8081 9.62034 19.0003 8.99969 19Z" fill="black"/>
</svg>
