<svg width="14" height="14" viewBox="0 0 14 14" fill="none" xmlns="http://www.w3.org/2000/svg">
<path d="M6.85515 3.05176e-05L12.5191 2.57066H13.2817C13.3953 2.57066 13.5043 2.61579 13.5847 2.69614C13.665 2.77649 13.7102 2.88546 13.7102 2.99909V4.71284C13.7102 4.82647 13.665 4.93545 13.5847 5.01579C13.5043 5.09614 13.3953 5.14128 13.2817 5.14128H12.8533V11.1394C12.949 11.1395 13.0419 11.1716 13.1172 11.2306C13.1925 11.2896 13.2459 11.3721 13.2689 11.465L13.6973 13.1788C13.7132 13.2419 13.7145 13.3078 13.7011 13.3715C13.6876 13.4352 13.6598 13.495 13.6197 13.5462C13.5796 13.5975 13.5283 13.6389 13.4697 13.6673C13.4111 13.6957 13.3468 13.7103 13.2817 13.71H0.428588C0.363492 13.7103 0.299194 13.6957 0.240615 13.6673C0.182035 13.6389 0.130728 13.5975 0.0906195 13.5462C0.050511 13.495 0.0226646 13.4352 0.00921176 13.3715C-0.00424113 13.3078 -0.00294392 13.2419 0.0130041 13.1788L0.441442 11.465C0.464406 11.3721 0.517802 11.2896 0.59312 11.2306C0.668438 11.1716 0.761343 11.1395 0.857026 11.1394V5.14128H0.428588C0.31496 5.14128 0.205985 5.09614 0.125637 5.01579C0.0452898 4.93545 0.000150969 4.82647 0.000150969 4.71284V2.99909C0.000150969 2.88546 0.0452898 2.77649 0.125637 2.69614C0.205985 2.61579 0.31496 2.57066 0.428588 2.57066H1.19121L6.85515 3.05176e-05ZM3.23657 2.57066H10.4746L6.85515 0.856906L3.23657 2.57066ZM1.7139 5.14128V11.1394H2.57078V5.14128H1.7139ZM3.42765 5.14128V11.1394H5.56984V5.14128H3.42765ZM6.42671 5.14128V11.1394H7.28359V5.14128H6.42671ZM8.14046 5.14128V11.1394H10.2827V5.14128H8.14046ZM11.1395 5.14128V11.1394H11.9964V5.14128H11.1395ZM12.8533 4.28441V3.42753H0.857026V4.28441H12.8533ZM12.5191 11.9963H1.19121L0.976988 12.8532H12.7333L12.5191 11.9963Z" fill="#F772D1"/>
</svg>
